
<svg xmlns="http://www.w3.org/2000/svg" style="display:none">
  <symbol
    id="envelope"
    viewBox="0 0 34.194 25.546"
    fill="currentColor"
  >
    <path d="M30.641,0H3.553C1.591,0.002,0.002,1.592,0,3.554v18.439 c0.002,1.961,1.592,3.551,3.553,3.553h27.088c1.961-0.002,3.551-1.592,3.553-3.553V3.554C34.192,1.592,32.603,0.002,30.641,0z  M3.553,1.665h27.088c0.645,0.001,1.245,0.333,1.589,0.878L18.567,14.511l-0.04,0.038c-0.79,0.788-2.07,0.788-2.86,0l-0.04-0.038 L1.964,2.544C2.308,1.998,2.908,1.667,3.553,1.665L3.553,1.665z M30.641,23.88H3.553c-1.042-0.001-1.887-0.846-1.888-1.888v-17.5 L14.51,15.744c1.436,1.41,3.737,1.41,5.173,0L32.528,4.493v17.5C32.526,23.034,31.682,23.878,30.641,23.88z"/>
  </symbol>
  <symbol
    id="facebook"
    viewBox="0 0 24 24"
    fill="currentColor"
  >
    <path d="M17,2V2H17V6H15C14.31,6 14,6.81 14,7.5V10H14L17,10V14H14V22H10V14H7V10H10V6A4,4 0 0,1 14,2H17Z" />
  </symbol>
  <symbol
    id="instagram"
    viewBox="0 0 24 24"
    fill="currentColor"
  >
    <path d="M7.8,2H16.2C19.4,2 22,4.6 22,7.8V16.2A5.8,5.8 0 0,1 16.2,22H7.8C4.6,22 2,19.4 2,16.2V7.8A5.8,5.8 0 0,1 7.8,2M7.6,4A3.6,3.6 0 0,0 4,7.6V16.4C4,18.39 5.61,20 7.6,20H16.4A3.6,3.6 0 0,0 20,16.4V7.6C20,5.61 18.39,4 16.4,4H7.6M17.25,5.5A1.25,1.25 0 0,1 18.5,6.75A1.25,1.25 0 0,1 17.25,8A1.25,1.25 0 0,1 16,6.75A1.25,1.25 0 0,1 17.25,5.5M12,7A5,5 0 0,1 17,12A5,5 0 0,1 12,17A5,5 0 0,1 7,12A5,5 0 0,1 12,7M12,9A3,3 0 0,0 9,12A3,3 0 0,0 12,15A3,3 0 0,0 15,12A3,3 0 0,0 12,9Z" />
  </symbol>
  <symbol
    id="steam-circle"
    viewBox="-1 -1 19.71 19.71"
    fill="currentColor"
  >
    <path d="M8.856,0a8.856,8.856,0,1,0,8.856,8.856A8.856,8.856,0,0,0,8.856,0Zm0,16.235a7.388,7.388,0,0,1-7.184-5.719L4.44,11.681A1.99,1.99,0,0,0,8.383,11.3l0,0,2.278-1.7A2.588,2.588,0,1,0,8.107,6.967L6.437,9.3A1.96,1.96,0,0,0,5.3,9.627L1.524,8.037a7.379,7.379,0,1,1,7.332,8.2ZM6.824,10.265l-.976-.41a1.521,1.521,0,0,1,.545-.1,1.538,1.538,0,1,1-1.41,2.156l.977.41a1.115,1.115,0,0,0,.863-2.055ZM8.935,7.017a1.759,1.759,0,1,1,1.759,1.76A1.761,1.761,0,0,1,8.935,7.017Zm1.759,1.329a1.329,1.329,0,1,1,1.328-1.328A1.33,1.33,0,0,1,10.695,8.346Z" />
  </symbol>
  <symbol
    id="account-nav"
    viewBox="0 0 20 21"
  >
    <g stroke="currentColor" stroke-linecap="round" stroke-miterlimit="10" stroke-width="2" transform="translate(-97.5 -101.5)">
      <path fill="none" d="M116.5 105.5h-6"/>
      <path fill="#fff" d="M116.5 113.5h-18"/>
      <path fill="#fff" d="M116.5 121.5h-18"/>
      <rect width="6" height="6" fill="none" rx="1" transform="translate(98.5 102.5)"/>
    </g>
  </symbol>
  <symbol
    id="battle-case"
    viewBox="0 0 18.61 18.61"
  >
    <g fill="none" stroke="currentColor" stroke-miterlimit="10" stroke-width="1.5" transform="translate(-165 -93)">
      <circle cx="3.1" cy="3.1" r="3.1" transform="translate(171.2 99.2)"/>
      <circle cx="6.2" cy="6.2" r="6.2" transform="translate(168.1 96.1)"/>
      <path d="M174.3 93v3.1"/>
      <path d="M180.5 102.3h3.1"/>
      <path d="M174.3 111.6v-3.1"/>
      <path d="M168.1 102.3H165"/>
    </g>
  </symbol>
  <symbol
    id="diamond"
    viewBox="0 0 21.49 20.31"
  >
    <g fill="none" stroke="currentColor" stroke-linejoin="round" stroke-width="1.5">
      <path d="M10.74 19.56L.75 6.34 5.45.75h10.58l4.7 5.58z"/>
      <path d="M.75 6.34L7.22 7.8h7.05l6.47-1.47"/>
      <path d="M16.03.75L14.27 7.8l-3.53 11.76L7.22 7.81 5.45.75"/>
      <path d="M7.22 7.8L10.74.75l3.53 7.05"/>
    </g>
  </symbol>
  <symbol
    id="diamond2"
    viewBox="0 0 26.27 21.78"
    fill="none"
    stroke="currentColor"
  >
    <g transform="translate(.65 .65)">
      <path d="M12.48 20.48L0 6.08 5.88 0h13.21l5.88 6.08-12.49 14.4z"/>
      <path d="M0 6l8.08 1.84h8.81L24.97 6"/>
      <path d="M19.1 0l-2.2 7.68-4.41 12.8-4.4-12.8L5.87 0"/>
      <path d="M8.08 8.81L12.48 0l4.41 8.81"/>
    </g>
  </symbol>
  <symbol
    id="knife"
    viewBox="0 0 47.59 15.84"
    fill="currentColor"
  >
    <path d="M46.7 2.94H32.75V.82a.82.82 0 00-.82-.82h-2.32a.82.82 0 00-.82.82v2.12h-1.53a.82.82 0 00-.64.31l-1.1 1.4-1.1-1.4a.85.85 0 00-1.29 0l-1.1 1.4-1.1-1.4a.85.85 0 00-1.29 0l-1.1 1.4-1.1-1.4a.85.85 0 00-1.28 0l-1.1 1.4-1.1-1.4a.85.85 0 00-1.29 0l-1.1 1.4-1.1-1.4a.82.82 0 00-.64-.3H6.96a.82.82 0 100 1.63h2.48l1.5 1.9a.85.85 0 001.29 0l1.1-1.4 1.1 1.4a.85.85 0 001.28 0l1.1-1.4 1.1 1.4a.85.85 0 001.29 0l1.1-1.4 1.1 1.4a.85.85 0 001.29 0l1.1-1.4 1.1 1.4a.85.85 0 001.28 0l1.5-1.9h1.13v6.94H10.4c-5.64 0-7.82-4.8-8.5-6.94H4.3a.82.82 0 000-1.64H.82a.82.82 0 00-.8.98c.01.1 1.93 9.25 10.38 9.25H28.8v1.85c0 .45.37.82.82.82h2.32c.45 0 .82-.37.82-.82v-2.05c2.08-.98 4.36-1.5 6.66-1.5a14.87 14.87 0 016.77 1.64l.21.1a.82.82 0 001.18-.79V3.77a.83.83 0 00-.9-.83zM31.11 14.2h-.68V1.64h.68V14.2zm14.82-3.02a16.42 16.42 0 00-6.52-1.35c-2.29 0-4.55.46-6.66 1.34V4.58h13.18v6.59z"/>
  </symbol>
  <symbol
    id="pad"
    viewBox="0 0 29.62 18.92"
    fill="none"
    stroke="currentColor"
  >
    <g transform="translate(-30.15 -40.5)">
      <path d="M58.7 52.86c-1.73-6.2-2.4-11.61-6.9-11.61H38.1c-4.48 0-5.16 5.4-6.88 11.61-1.46 5.3 2.36 6.85 4.55 5.16 1.51-1.17 3.6-5.53 3.6-5.53h11.18s2.09 4.36 3.6 5.53c2.2 1.7 6.01.14 4.54-5.16z"/>
      <path d="M38.65 44.09v4.79"/>
      <path d="M36.25 46.49h4.8"/>
      <path d="M53.7 46.74a.24.24 0 110-.48c.13 0 .24.1.24.24 0 .13-.1.24-.24.24z"/>
      <path d="M49 46.74a.24.24 0 110-.48c.14 0 .24.1.24.24 0 .13-.1.24-.24.24z"/>
      <path d="M51.6 44.15a.24.24 0 11-.5 0c0-.13.12-.24.25-.24s.24.1.24.24z"/>
      <path d="M51.6 48.85a.24.24 0 11-.5 0 .24.24 0 01.5 0z"/>
    </g>
  </symbol>
  <symbol
    id="document"
    viewBox="0 0 15.62 17.5"
  >
    <g fill="none" stroke="currentColor" stroke-linejoin="round" stroke-width="1.5">
      <g>
        <path d="M12.99.75H2.63A1.88 1.88 0 00.75 2.63v12.24a1.88 1.88 0 001.88 1.88h6.22a.94.94 0 00.64-.25l5.07-4.65a.94.94 0 00.3-.7V2.64A1.88 1.88 0 0013 .75z"/>
        <path d="M9.22 16.75v-3.3a1.88 1.88 0 011.88-1.88h3.53"/>
      </g>
      <path d="M3.1 4.04h7.53"/>
      <path d="M3.1 13.93h3.77"/>
      <path d="M3.1 10.63h5.65"/>
      <path d="M3.1 7.34h9.41"/>
    </g>
  </symbol>
  <symbol
    id="fair"
    viewBox="0 0 25.52 17.71"
  >
    <g fill="none" stroke="currentColor" stroke-miterlimit="10" stroke-width="1.5">
      <path d="M0 6.2h1.6l7.55-3.1a1.06 1.06 0 01.63-.07L15.1 4.1a1.06 1.06 0 01.85 1.04v4.78A1.06 1.06 0 0114.89 11h-2.13a1.06 1.06 0 110-2.13 1.06 1.06 0 000-2.12h-2.13A1.06 1.06 0 009.57 7.8v4.78a1.06 1.06 0 00.85 1.05l5.32 1.06a1.04 1.04 0 00.21.02 1.06 1.06 0 00.42-.09l7.55-3.1h1.6"/>
      <path d="M15.1 4.1l-2.33-.47a1.6 1.6 0 01-1.25-1.88l.18-.87 8.7 1.74a8.69 8.69 0 013.51 1.57 2.05 2.05 0 001.23.41h.38"/>
      <path d="M10.43 13.62l2.32.46A1.6 1.6 0 0114 15.96l-.17.87-8.7-1.74a8.69 8.69 0 01-3.52-1.57 2.05 2.05 0 00-1.23-.41H0"/>
    </g>
  </symbol>
  <symbol
    id="filling-form"
    viewBox="0 0 91.81 103.93"
  >
    <g fill="currentColor">
      <path d="M39.75 3.04h25.37a5.25 5.25 0 015.25 5.25v54.68a1.52 1.52 0 003.04 0V8.29A8.3 8.3 0 0065.12 0H39.75a1.52 1.52 0 100 3.05z"/>
      <path d="M49.21 93.32H8.3a5.25 5.25 0 01-5.24-5.25V8.29a5.25 5.25 0 015.24-5.24h25.37a1.52 1.52 0 100-3.05H8.3A8.3 8.3 0 000 8.3v79.77a8.3 8.3 0 008.3 8.29H49.2a1.52 1.52 0 100-3.04z"/>
      <path d="M44.16 19.12a1.52 1.52 0 001.52-1.52v-1.87h1.87a1.52 1.52 0 100-3.05h-1.87v-1.87a1.52 1.52 0 00-3.04 0v1.87h-1.87a1.52 1.52 0 100 3.05h1.87v1.87a1.52 1.52 0 001.52 1.52z"/>
      <path d="M34.35 26.6a1.52 1.52 0 100 3.05h4.71a1.52 1.52 0 000-3.04h-.83V16.49a1.52 1.52 0 00-1.52-1.53h-2.36a1.52 1.52 0 100 3.05h.84v8.6z"/>
      <path d="M23.04 22.3a13.67 13.67 0 0027.34 0 1.52 1.52 0 10-3.05 0A10.62 10.62 0 1136.71 11.7a1.52 1.52 0 100-3.05 13.68 13.68 0 00-13.67 13.67z"/>
      <path d="M12.8 68.46a.1.1 0 01-.1-.1v-6.21a.1.1 0 01.1-.1h43.76v6.41zM90.3 81.7a1.52 1.52 0 001.51-1.52v-7.1a423.43 423.43 0 01-13.6-5.65 5.56 5.56 0 01-8.05 0 5.52 5.52 0 00-2.5.6v-8.67a5.58 5.58 0 00-5.35-5.64 5.55 5.55 0 00-5.74 5.29H12.79a3.15 3.15 0 00-3.15 3.14v6.21a3.15 3.15 0 003.15 3.15h43.77v8.2l-4.08-4.87a5.4 5.4 0 00-8.04-.35 6.33 6.33 0 00-.37 8.38l12.49 14.89v2.59a3.6 3.6 0 003.59 3.58h20.12A11.56 11.56 0 0091.8 92.4v-6.11a1.52 1.52 0 00-3.04 0v6.11a8.5 8.5 0 01-8.5 8.5H60.14a.55.55 0 01-.54-.54V97.2a1.52 1.52 0 00-.36-.98L46.4 80.92a3.27 3.27 0 01.19-4.27 2.35 2.35 0 013.55.15l6.77 8.07a1.52 1.52 0 002.7-.98V59.27a2.5 2.5 0 012.6-2.5 2.58 2.58 0 012.4 2.6v13.62a1.52 1.52 0 003.05 0 2.5 2.5 0 014.88-.78 1.73 1.73 0 001.65 1.2 1.73 1.73 0 001.64-1.2 2.5 2.5 0 014.76 0 1.73 1.73 0 001.65 1.2 1.73 1.73 0 001.64-1.2 2.52 2.52 0 012.48-1.73 2.58 2.58 0 012.4 2.6v7.1a1.52 1.52 0 001.53 1.53z"/>
      <path d="M12.69 83.07V80.7a1.68 1.68 0 011.67-1.67h10.92a1.68 1.68 0 011.68 1.67v2.36a1.68 1.68 0 01-1.68 1.67H14.36a1.68 1.68 0 01-1.67-1.67zm12.6 4.72A4.73 4.73 0 0030 83.07V80.7A4.73 4.73 0 0025.28 76H14.37a4.73 4.73 0 00-4.73 4.72v2.36a4.73 4.73 0 004.73 4.72z"/>
      <path d="M60.73 44.06v6.2a.1.1 0 01-.1.1H12.79a.1.1 0 01-.1-.1v-6.2a.1.1 0 01.1-.1h47.83a.1.1 0 01.1.1zm-47.94-3.15a3.15 3.15 0 00-3.15 3.15v6.2a3.15 3.15 0 003.15 3.16h47.84a3.15 3.15 0 003.14-3.15v-6.21a3.15 3.15 0 00-3.14-3.15z"/>
      <path d="M17.19 63.73h-.4a1.52 1.52 0 100 3.05h.4a1.52 1.52 0 100-3.05z"/>
      <path d="M23.41 63.73h-.4a1.52 1.52 0 100 3.05h.4a1.52 1.52 0 100-3.05z"/>
      <path d="M29.64 63.73h-.4a1.52 1.52 0 100 3.05h.4a1.52 1.52 0 100-3.05z"/>
      <path d="M35.86 63.73h-.4a1.52 1.52 0 100 3.05h.4a1.52 1.52 0 100-3.05z"/>
      <path d="M42.09 63.73h-.4a1.52 1.52 0 100 3.05h.4a1.52 1.52 0 100-3.05z"/>
    </g>
  </symbol>
  <symbol
    id="find"
    viewBox="0 0 21.28 21.28"
  >
    <g fill="none" stroke="currentColor" stroke-linejoin="round" stroke-width="1.5" transform="translate(-565.25 -229.25)">
      <circle cx="8.75" cy="8.75" r="8.75" transform="translate(566 230)"/>
      <path d="M586 250l-5-5"/>
    </g>
  </symbol>
  <symbol
    id="fist-bump"
    viewBox="0 0 27.34 21.48"
  >
    <g fill="none" stroke="currentColor" stroke-miterlimit="10" stroke-width="1.5">
      <path d="M19.37 14.87A1.14 1.14 0 0118.23 16h-2.28a1.14 1.14 0 110-2.28h2.28a1.14 1.14 0 011.14 1.14z"/>
      <path d="M19.37 12.59a1.14 1.14 0 01-1.14 1.14h-2.28a1.14 1.14 0 110-2.28h2.28a1.14 1.14 0 011.14 1.14z"/>
      <path d="M17.1 11.45h-1.15a1.14 1.14 0 110-2.28h1.14"/>
      <path d="M17.1 9.17h-1.15a1.14 1.14 0 110-2.28h1.14"/>
      <path d="M23.93 12.02h-.57a3.99 3.99 0 01-4-3.99v1.71a1.7 1.7 0 01-1.7 1.71h-.57V6.32a1.14 1.14 0 011.14-1.14h4.18a2.28 2.28 0 011.61.67l2.19 2.18h1.13"/>
      <path d="M17 16.24h9"/>
      <path d="M25 13.24v3"/>
      <path d="M7.98 14.87A1.14 1.14 0 009.1 16h2.28a1.14 1.14 0 100-2.28H9.11a1.14 1.14 0 00-1.13 1.14z"/>
      <path d="M7.98 12.59a1.14 1.14 0 001.13 1.14h2.28a1.14 1.14 0 100-2.28H9.11a1.14 1.14 0 00-1.13 1.14z"/>
      <path d="M10.25 11.45h1.14a1.14 1.14 0 100-2.28h-1.14"/>
      <path d="M10.25 9.17h1.14a1.14 1.14 0 100-2.28h-1.14"/>
      <path d="M3.42 12.02h.57a3.99 3.99 0 003.99-3.99v1.71a1.7 1.7 0 001.7 1.71h.57V6.32a1.14 1.14 0 00-1.14-1.14H4.93a2.28 2.28 0 00-1.61.67L1.14 8.03H0"/>
      <path d="M11 16.24H1"/>
      <path d="M2 13.24v3"/>
      <path d="M14 3.24v-3"/>
      <path d="M16 3.24l1-3"/>
      <path d="M12 3.24l-1-3"/>
      <path d="M14 18.24v3"/>
      <path d="M16 18.24l1 3"/>
      <path d="M12 18.24l-1 3"/>
    </g>
  </symbol>
  <symbol
    id="gift"
    viewBox="0 0 16 16"
  >
    <path fill="currentColor" d="M14.67 4H12.3a2.64 2.64 0 00.37-1.33A2.66 2.66 0 008 .92 2.65 2.65 0 003.7 4H1.33A1.34 1.34 0 000 5.33V8h1.33v6.67A1.34 1.34 0 002.67 16h10.66a1.34 1.34 0 001.34-1.33V8H16V5.33A1.34 1.34 0 0014.67 4zM10 1.33A1.33 1.33 0 0110 4H8.66V2.67A1.33 1.33 0 0110 1.33zM4.67 2.67a1.33 1.33 0 012.66 0V4H6a1.33 1.33 0 01-1.33-1.33zM2.67 8h4.66v6.67H2.67zm10.66 6.67H8.67V8h4.66zm1.34-8H1.33V5.33h13.34z"/>
  </symbol>
  <symbol
    id="gmail"
    viewBox="0 0 19.73 13.98"
  >
    <path fill="currentColor" fill-rule="evenodd" d="M18.33 13.98H1.4A1.4 1.4 0 010 12.58V1.4A1.4 1.4 0 011.4 0h16.93a1.4 1.4 0 011.4 1.4v11.17a1.4 1.4 0 01-1.4 1.4zm-8.46-5L2.19 3.64l-.02 9.52h15.36V3.64L9.87 8.97zM17.16.82H2.53l7.34 5.12S15 2.32 17.16.82z"/>
  </symbol>
  <symbol
    id="handshake"
    viewBox="0 0 24.36 18.54"
  >
    <g fill="none" stroke="currentColor" stroke-miterlimit="10" stroke-width="1.5">
      <path d="M2.63 10.59l1.56-.97a1.27 1.27 0 111.33 2.16l-1.56.96a1.27 1.27 0 11-1.33-2.15z"/>
      <path d="M4.66 12.3l1.56-.96a1.27 1.27 0 111.33 2.16l-1.56.96a1.27 1.27 0 11-1.33-2.15z"/>
      <path d="M6.69 14.03l1.56-.96a1.27 1.27 0 111.33 2.16l-1.56.96a1.27 1.27 0 11-1.33-2.16z"/>
      <path d="M9.23 15.44l1.55-.96a1.27 1.27 0 111.34 2.16l-1.56.96a1.27 1.27 0 11-1.33-2.16z"/>
      <path d="M16.05 10.05l3.65 2.26.7.43a1.24 1.24 0 00.66.2 1.27 1.27 0 00.67-2.35l-9.85-6.1-1.22 1.04v1.82a1.52 1.52 0 01-1.53 1.52H7.61V4.81a1.54 1.54 0 01.55-1.16L11.2 1.1a1.5 1.5 0 011.46-.27l4.7 1.62a6.1 6.1 0 004.71-.3l1.78-.9"/>
      <path d="M.5 1.26l1.78.89a6.1 6.1 0 004.7.3L11.7.84a1.52 1.52 0 01.48-.08"/>
      <path d="M16.05 10.05l3.65 2.26a1.27 1.27 0 01-.67 2.35 1.24 1.24 0 01-.66-.2l-.7-.43-2.96-1.83"/>
      <path d="M13.38 14.36l1.75 1.08 1.2.75a1.28 1.28 0 00.67.19 1.27 1.27 0 00.67-2.35l-2.96-1.82"/>
      <path d="M2.55 10.64a3.91 3.91 0 00-2.3-.75H0"/>
      <path d="M21.81 10.64a3.91 3.91 0 012.3-.75h.25"/>
      <path d="M13.8 17.6l-1.63-1"/>
      <path d="M13.38 14.36l1.75 1.09a1.27 1.27 0 01-.67 2.34 1.28 1.28 0 01-.66-.18"/>
      <path d="M9.5 6.26h-2"/>
    </g>
  </symbol>
  <symbol
    id="help"
    viewBox="0 0 18.38 18.38"
  >
    <g fill="none" stroke="currentColor" stroke-miterlimit="10" stroke-width="1.2" transform="translate(-627.25 -493.25)">
      <path d="M632.23 509.46l2.8-3.5"/>
      <path d="M637.85 498.93l2.8-3.51"/>
      <path d="M639.95 501.04l3.51-2.81"/>
      <path d="M632.93 503.85l-3.51 2.8"/>
      <circle cx="8.44" cy="8.44" r="8.44" transform="translate(628 494)"/>
      <circle cx="3.48" cy="3.48" r="3.48" transform="translate(632.97 498.96)"/>
      <path d="M643.46 506.66l-3.5-2.81"/>
      <path d="M632.93 501.04l-3.51-2.81"/>
      <path d="M635.04 498.93l-2.81-3.51"/>
      <path d="M637.85 505.95l2.8 3.51"/>
    </g>
  </symbol>
  <symbol
    id="items"
    viewBox="0 0 18.5 18.5"
  >
    <g fill="none" stroke="currentColor" stroke-miterlimit="10" stroke-width="1.5" transform="translate(-499.25 -626.25)">
      <rect width="6.91" height="6.91" rx="3" transform="translate(500 627)"/>
      <rect width="6.91" height="6.91" rx="3" transform="translate(510.1 627)"/>
      <rect width="6.91" height="6.91" rx="3" transform="translate(500 637.1)"/>
      <rect width="6.91" height="6.91" rx="3" transform="translate(510.1 637.1)"/>
    </g>
  </symbol>
  <symbol
    id="key"
    viewBox="0 0 20.5 20.5"
  >
    <g fill="none" stroke="currentColor" stroke-linejoin="round" stroke-width="1.5">
      <path d="M8.61 8.63L16.5.75h3.26v3.26l-1.43 1.43h-2.44v2.44h-2.44v2.44l-1.57 1.57a5.76 5.76 0 11-3.26-3.26z"/>
      <path d="M7.73 12.77a1.73 1.73 0 11-2.44 0 1.73 1.73 0 012.44 0z"/>
    </g>
  </symbol>
  <symbol
    id="lottery"
    viewBox="0 0 19.96 21.38"
  >
    <path fill="currentColor" d="M19.2 7.58a9.9 9.9 0 00-5.4-5.4 10.08 10.08 0 00-1.9-.58l.36-.86a.54.54 0 00-.5-.74H8.2a.54.54 0 00-.5.74l.37.86a10.08 10.08 0 00-1.9.58 9.97 9.97 0 1013.03 5.4zm-5.33-4.2A8.83 8.83 0 0118 7.5l-.66.27a8.12 8.12 0 00-3.73-3.72zm2.88 10.24l-5.37-2.22 5.37-2.23a7.07 7.07 0 010 4.45zm-.41-5.44l-5.37 2.23 2.22-5.37a7.1 7.1 0 013.15 3.14zM7.75 4.63a7.07 7.07 0 011.44-.31l.3.7a.54.54 0 00.98 0l.3-.7a7.16 7.16 0 011.43.31L9.98 10zm4.45 13.53a7.09 7.09 0 01-4.44 0l2.22-5.36zm-.73-15.55a8.97 8.97 0 011.42.37l-.28.66a8.22 8.22 0 00-1.42-.35zm-.51-1.54l-.98 2.35L9 1.07zM8.49 2.6l.28.68a8.22 8.22 0 00-1.43.35l-.27-.66a8.97 8.97 0 011.42-.37zm.5 7.8L3.62 8.18a7.06 7.06 0 013.15-3.14zm-.4.99L3.2 13.62a7.07 7.07 0 010-4.45zm-2.5-8.01l.27.66a8.12 8.12 0 00-3.73 3.72l-.66-.27a8.83 8.83 0 014.11-4.11zm-4.53 5.1l.66.27a8.12 8.12 0 000 5.27l-.66.27a8.83 8.83 0 010-5.81zM6.08 19.4a8.83 8.83 0 01-4.11-4.1l.66-.28a8.12 8.12 0 003.72 3.72zm-2.46-4.8l5.37-2.22-2.22 5.37a7.1 7.1 0 01-3.15-3.14zm3.45 5.2l.27-.66a8.11 8.11 0 005.27 0l.28.66a8.83 8.83 0 01-5.82.01zm3.9-7.43l5.37 2.23a7.06 7.06 0 01-3.15 3.15zm2.9 7.03l-.27-.66A8.12 8.12 0 0017.33 15l.66.27a8.83 8.83 0 01-4.12 4.12zm4.53-5.1l-.66-.28a8.12 8.12 0 000-5.27l.66-.27a8.83 8.83 0 010 5.82z"/>
  </symbol>
  <symbol
    id="open-case"
    viewBox="0 0 115.75 86"
  >
    <path fill="currentColor" d="M101.06 27.18l14.26-10.07a1.81 1.81 0 00-.8-2.9L73.73.1a2.06 2.06 0 00-1.99.54l-13.86 9.6L44.02.63A2.29 2.29 0 0042.02.1L1.24 14.22a1.81 1.81 0 00-.8 2.89l14.25 10.07L.43 39.6a1.81 1.81 0 00.8 2.88l40.8 14.13a1.8 1.8 0 00.6.1 2.15 2.15 0 001.39-.64l12.04-9.8v35.37L18.88 64.18v-8.5a1.81 1.81 0 10-3.63 0v9.8a1.81 1.81 0 001.22 1.7l40.8 18.72h.03a1.76 1.76 0 00.2.06l.09.02a1.81 1.81 0 00.28.02 1.82 1.82 0 00.3-.02l.08-.02a1.75 1.75 0 00.2-.05h.02l40.8-18.73a1.81 1.81 0 001.23-1.71v-9.79a1.81 1.81 0 10-3.63 0v8.5L59.69 81.64V46.27l12.04 9.8a2.12 2.12 0 001.39.64 1.8 1.8 0 00.59-.1l40.81-14.13a1.81 1.81 0 00.8-2.88zm-43.19 12.2l-35.26-12.2L56.06 15.6v15.74a1.81 1.81 0 003.63 0V15.6l33.45 11.58zM73.7 3.94l37.14 12.85-12.6 8.11L61.1 12.04zm-31.65 0l12.6 8.1L17.5 24.9 4.9 16.8zm0 48.84L4.9 39.92 17.64 29.3l37.14 12.86zm31.65 0L60.97 42.16 98.1 29.3l12.74 10.62z"/>
  </symbol>
  <symbol
    id="security"
    viewBox="0 0 17.79 19.96"
  >
    <g fill="none" stroke="currentColor" stroke-linejoin="round" stroke-width="1.5">
      <path d="M8.9.75a13 13 0 008.14 4.34c-.49 5.9-2.13 11.95-8.15 14.12C2.9 17.04 1.24 11 .75 5.1A13 13 0 008.89.75z"/>
      <path d="M5.1 9.98l2.7 2.72 5.44-5.43"/>
    </g>
  </symbol>
  <symbol
    id="tasks"
    viewBox="0 0 19.6 19.51"
  >
    <g fill="currentColor" stroke="currentColor" stroke-width=".6" transform="translate(-311.7 -240)">
      <path d="M329.02 246.13h-2.08a.4.4 0 000 .8h2.08a1.19 1.19 0 011.2 1.18v5.94a1.19 1.19 0 01-1.2 1.2h-1.18a.4.4 0 00-.36.21l-1.23 2.46-1.23-2.46a.4.4 0 00-.35-.22h-4.75a1.19 1.19 0 01-1.19-1.19v-.4h4.36a1.98 1.98 0 001.97-1.98v-2.87a.4.4 0 00-.79 0v2.87a1.19 1.19 0 01-1.19 1.2h-9.1a1.19 1.19 0 01-1.19-1.2v-5.93a1.19 1.19 0 011.19-1.19h1.19a.4.4 0 00.35-.22l1.23-2.46 1.23 2.46a.4.4 0 00.35.22h3.93l-2.3 2.3a.4.4 0 00-.1.19l-.56 2.24a.4.4 0 00.48.48l2.24-.56a.4.4 0 00.18-.1l5.26-5.26a.4.4 0 000-.56l-1.4-1.4.78-.78a1.28 1.28 0 011.13 1.28.4.4 0 00.79 0 2.08 2.08 0 00-2.08-2.08.4.4 0 00-.28.12l-1.18 1.18a.4.4 0 000 .56l1.4 1.4-4.9 4.9-1.49.37.37-1.5 3.78-3.77a.4.4 0 10-.56-.56l-.77.77h-4.47l-1.48-2.95a.41.41 0 00-.7 0l-1.48 2.95h-.94a1.98 1.98 0 00-1.98 1.97v5.94a1.98 1.98 0 001.98 1.98h3.96v.4a1.98 1.98 0 001.98 1.98h4.5l1.48 2.94a.4.4 0 00.7 0l1.48-2.94h.94a1.98 1.98 0 001.98-1.99v-5.94a1.98 1.98 0 00-1.98-1.98z"/>
      <circle cx=".59" cy=".59" r=".59" transform="translate(317.01 248.58)"/>
      <circle cx=".59" cy=".59" r=".59" transform="translate(314.77 248.58)"/>
    </g>
  </symbol>
  <symbol
    id="trophy"
    viewBox="0 0 91.84 107.68"
  >
    <g fill="none" stroke="currentColor" stroke-miterlimit="10" stroke-width="3.3">
      <path d="M20.63 51.47h7.11c1.91 0 5.02-.3 7.25-2.68 3.18-3.39 4.53-6.81 8.14-6.81"/>
      <path d="M46.72 51.47H65.7a6.68 6.68 0 016.57 6.5c-.3 9.94-1.72 29.08-6.57 29.08H44.35c-5.56 0-11.47-7.11-14.23-7.11h-9.5"/>
      <path d="M1.65 46.72h18.98v37.96H1.65z"/>
      <path d="M11.14 53.84v7.12"/>
      <path d="M56.21 1.65c-9.5 0-19 1.05-23.72 2.37 0 16.49 5.8 35.59 18.48 47.45"/>
      <path d="M65.7 87.05v7.12"/>
      <path d="M44.35 94.17v-7.12"/>
      <path d="M58.58 94.17h7.12l7.12 4.74v7.12H37.23V98.9l7.12-4.74h7.12"/>
      <path d="M39.09 34.9c-6.9 2.08-14.68-7.1-16.49-14.27s3.15-9.78 10.05-11.86"/>
      <path d="M56.21 1.65c9.5 0 19 1.05 23.72 2.37 0 16.49-5.8 35.59-18.48 47.45"/>
      <path d="M73.33 34.9c6.9 2.08 14.68-7.1 16.49-14.27s-3.15-9.78-10.04-11.86"/>
    </g>
  </symbol>
  <symbol
    id="upgrader"
    viewBox="0 0 15.44 15.88"
  >
    <g fill="none" stroke="currentColor" stroke-linejoin="round" stroke-width="1.5">
      <path d="M12.08 13.82h.87a1.74 1.74 0 001.74-1.74V2.49A1.74 1.74 0 0012.95.75H2.49A1.74 1.74 0 00.75 2.49v9.59a1.74 1.74 0 001.74 1.74h.87"/>
      <path d="M4.67 15.13l3.05-4.36 3.05 4.36z"/>
    </g>
  </symbol>
  <symbol
    id="user"
    viewBox="0 0 19.5 18.5"
  >
    <g fill="none" stroke="currentColor" stroke-width="1.5">
      <path stroke-miterlimit="10" d="M9.75 12.93c-1.5 0-3.23-1.66-3.92-3.98-.56-.01-1.05-.67-1.11-1.5a1.5 1.5 0 01.81-1.64C5.67 2.63 6.55.75 9.75.75s4.08 1.88 4.21 5.06a1.5 1.5 0 01.82 1.63c-.06.84-.55 1.5-1.1 1.51-.7 2.32-2.44 3.98-3.93 3.98z"/>
      <path stroke-linejoin="round" d="M12.93 10.07c3.4.8 5.82 2.53 5.82 6.1a26.3 26.3 0 01-18 0c0-3.57 2.41-5.3 5.82-6.1"/>
    </g>
  </symbol>
  <symbol
    id="v-circle"
    viewBox="0 0 21 21"
  >
    <path fill="currentColor" d="M8.54 7.41l-1.43.2 2.9 7.39h1.21l2.92-7.48H12.7l-2.06 5.52z"/>
    <g fill="none" stroke="currentColor" stroke-width="1.5">
      <circle cx="10.5" cy="10.5" r="10.5" stroke="none"/>
      <circle cx="10.5" cy="10.5" r="9.75"/>
    </g>
  </symbol>
  <symbol
    id="wifi"
    viewBox="0 0 25.68 18.99"
  >
    <g fill="none" stroke="currentColor" stroke-linejoin="round" stroke-width="1.5" transform="translate(-33.11 -761.25)">
      <circle cx="2.41" cy="2.41" r="2.41" transform="translate(43.54 774.67)"/>
      <path d="M39.87 774.41a6.64 6.64 0 0112.16 0"/>
      <path d="M36.77 771.3a10.84 10.84 0 0118.37 0"/>
      <path d="M33.72 768.26a15.08 15.08 0 0124.46 0"/>
    </g>
  </symbol>
  <symbol
    id="shuffle"
    viewBox="0 0 22.4 18.2"
    fill="currentColor"
  >
    <path d="M19.4,11.2L18,12.5l1.2,1.2h-3.8c-1.1,0-2-0.6-2.5-1.6l-1.6-3.1L12.9,6c0.5-1,1.4-1.6,2.5-1.6h3.8
      L18,5.6l1.3,1.3l2.8-2.8c0.4-0.4,0.4-1,0-1.3c0,0,0,0,0,0L19.4,0L18,1.3l1.2,1.2h-3.9c-1.8,0-3.4,1-4.2,2.6L10.3,7L9.4,5.1
      C8.6,3.5,6.9,2.5,5.2,2.5H0v1.9h5.2c1.1,0,2,0.6,2.5,1.6l1.6,3.1l-1.6,3.1c-0.5,1-1.4,1.6-2.5,1.6H0v1.9h5.2c1.8,0,3.4-1,4.2-2.6
      l0.9-1.9l0.9,1.9c0.8,1.6,2.4,2.6,4.2,2.6h3.8L18,16.8l1.3,1.3l2.8-2.8c0.4-0.4,0.4-1,0-1.3c0,0,0,0,0,0L19.4,11.2z"/>
  </symbol>
  <symbol
    id="stopwatch"
    viewBox="0 0 28.5 34.8"
    fill="currentColor"
  >
    <path d="M25.4,11.6l1.5-1.5c0.8-0.8,0.8-2.1-0.1-2.9c-0.8-0.8-2-0.8-2.8,0l-1.6,1.6c-1.6-1.1-3.5-1.9-5.4-2.3v-2h1.4
	c0.4,0,0.7-0.3,0.7-0.7l0,0V2c0-1.1-0.9-2-2-2h-5.4c-1.1,0-2,0.9-2,2v1.8c0,0.4,0.3,0.7,0.7,0.7l0,0h1.4v2C9.8,6.9,8,7.7,6.4,8.8
	L4.6,7.2C3.7,6.5,2.5,6.5,1.7,7.3s-0.8,2,0,2.8l1.5,1.5c-4.9,6.1-3.9,15.1,2.2,20.1s15.1,3.9,20.1-2.2
	C29.6,24.2,29.6,16.8,25.4,11.6z M24.9,8.2c0.3-0.3,0.7-0.2,1,0c0.2,0.3,0.2,0.7,0,0.9l-1.4,1.4c-0.3-0.3-0.6-0.6-1-0.9L24.9,8.2z
	 M10.9,2c0-0.4,0.3-0.7,0.7-0.7l0,0H17c0.4,0,0.7,0.3,0.7,0.7l0,0v1.1h-6.8L10.9,2z M15.6,4.5v1.8c-0.9-0.1-1.8-0.1-2.7,0V4.5H15.6z
	 M2.6,8.2c0.3-0.3,0.7-0.3,1,0L5,9.6c-0.3,0.3-0.7,0.6-1,0.9L2.6,9.2C2.4,8.9,2.4,8.5,2.6,8.2L2.6,8.2z M14.3,33.4
	c-7.1,0-12.9-5.8-12.9-12.9c0-6.4,4.7-11.8,11-12.8c1.3-0.2,2.6-0.2,3.9,0c2.1,0.3,4.2,1.2,5.9,2.5c0.7,0.5,1.3,1.1,1.9,1.8
	c4.7,5.4,4.2,13.5-1.2,18.2C20.4,32.3,17.4,33.4,14.3,33.4L14.3,33.4z M14.3,22.6c1.1,0,2-0.9,2-2c0-0.9-0.5-1.6-1.4-1.9v-4.9
	c0-0.4-0.3-0.7-0.7-0.7s-0.6,0.3-0.7,0.7v4.9c-1.1,0.4-1.6,1.5-1.2,2.6C12.6,22,13.4,22.6,14.3,22.6L14.3,22.6z M14.3,19.8
	c0.4,0,0.7,0.3,0.7,0.7s-0.3,0.7-0.7,0.7s-0.7-0.3-0.7-0.7l0,0C13.6,20.2,13.9,19.9,14.3,19.8L14.3,19.8z M21.5,13.4
	C21.5,13.3,21.5,13.3,21.5,13.4C21.5,13.3,21.5,13.3,21.5,13.4c-1.3-1.3-2.7-2.1-4.4-2.6c-0.4-0.1-0.7,0.2-0.8,0.5
	c-0.1,0.3,0.1,0.7,0.4,0.8c1.2,0.4,2.3,1,3.2,1.8l-0.5,0.5c-0.3,0.3-0.3,0.7,0,1s0.7,0.3,1,0l0,0l0.5-0.5c1.2,1.4,2,3.2,2.1,5.1
	h-0.7c-0.4,0-0.7,0.3-0.7,0.7c0,0.4,0.3,0.6,0.7,0.7H23c-0.1,1.9-0.9,3.6-2.1,5.1L20.4,26c-0.3-0.3-0.7-0.3-1,0s-0.3,0.7,0,1l0,0
	l0.5,0.5c-1.4,1.2-3.2,2-5.1,2.1v-0.7c0-0.4-0.3-0.7-0.7-0.7s-0.6,0.3-0.7,0.7v0.7c-1.9-0.1-3.6-0.9-5.1-2.1L9,26.8
	c0.3-0.3,0.3-0.7,0-1s-0.7-0.3-1,0l0,0l-0.5,0.5c-1.2-1.4-2-3.2-2.1-5.1h0.7c0.4,0,0.7-0.3,0.7-0.7c0-0.4-0.3-0.6-0.7-0.7H5.5
	c0.1-1.9,0.9-3.6,2.1-5.1L8,15.2c0.3,0.3,0.7,0.3,1,0s0.3-0.7,0-1l0,0l-0.5-0.5c0.9-0.8,2.1-1.4,3.2-1.8c0.4-0.1,0.6-0.4,0.5-0.8
	c-0.1-0.4-0.4-0.6-0.8-0.5h-0.1C9.7,11.1,8.2,12,7,13.1l0,0l0,0c-3.9,4-3.9,10.4,0,14.3l0,0l0,0c4,3.9,10.4,3.9,14.3,0l0,0l0,0
	C25.5,23.7,25.5,17.3,21.5,13.4L21.5,13.4z M14.3,11.7c0.4,0,0.7-0.3,0.7-0.7s-0.3-0.7-0.7-0.7s-0.7,0.3-0.7,0.7l0,0
	C13.6,11.4,13.9,11.7,14.3,11.7z"/>
  </symbol>
  <symbol
    id="battle-axe"
    viewBox="0 0 35.7 35.8"
    fill="currentColor"
  >
    <path transform="translate(-0.5 0)" d="M36,15.8c-0.1-0.1-0.3-0.2-0.5-0.2c-3.1,0.2-6.1-0.6-8.7-2.3
	c0.2-0.3,0.3-0.7,0.3-1.1l1.4-1.1c0.4,0.4,0.9,0.6,1.4,0.5l0,0c0.5,0,1-0.2,1.4-0.6c0.8-0.8,0.8-2,0-2.8l0,0L28,5.1
	c-0.8-0.8-2-0.8-2.8,0l0,0c-0.7,0.7-0.8,1.7-0.3,2.5l-1,1.5c-0.4,0-0.7,0.2-1.1,0.3c-1.6-2.6-2.4-5.6-2.3-8.7c0-0.4-0.3-0.7-0.7-0.7
	c0,0,0,0-0.1,0C16.6,0.2,13,2,10,4.8c-1.5,1.4-2.7,3-3.8,4.8c-1,1.8-1.6,3.7-1.9,5.7c0,0.4,0.2,0.7,0.6,0.8H5
	c3.1-0.2,6.1,0.6,8.7,2.3c-0.3,0.4-0.4,0.9-0.4,1.4L1.5,30.4c-0.8,0.7-1.1,1.7-0.9,2.7c0.3,1.2,1.3,2.2,2.6,2.6
	c0.2,0.1,0.4,0.1,0.7,0.1c0.8,0,1.6-0.4,2.1-1l10.7-12.2c0.4,0,0.9-0.2,1.2-0.4c1.7,2.6,2.4,5.6,2.3,8.7c0,0.4,0.3,0.7,0.7,0.7l0,0
	c0,0,0,0,0.1,0c2-0.2,3.9-0.9,5.7-1.9s3.4-2.3,4.8-3.8c2.9-3,4.7-6.7,4.8-9.7C36.2,16.2,36.1,16,36,15.8L36,15.8z M18.9,21.3
	l1.3-1.3c0.3-0.3,0.3-0.7,0-1s-0.7-0.3-1,0l-1.8,1.8c-0.6,0.6-1.5,0.6-2,0C15.2,20.6,15,20.3,15,20c0,0,0,0,0-0.1
	c-0.1-0.4,0.1-0.9,0.4-1.2l0,0l0,0l7.8-7.8l0,0l0,0c0.3-0.3,0.6-0.4,1-0.4l0,0c0.4,0,0.7,0.2,1,0.4c0.3,0.3,0.4,0.6,0.4,1
	c0,0,0,0,0,0.1c0,0.4-0.2,0.7-0.4,1l0,0l0,0l-1.6,1.6c-0.3,0.3-0.3,0.7,0,1s0.7,0.3,1,0l1.2-1.2c1.9,1.3,4.1,2.1,6.4,2.4
	c-1.8,5.1-5.8,9.1-10.9,11C21.1,25.5,20.2,23.2,18.9,21.3z M21.8,10.4l-6.9,6.9c-1.9-1.3-4.1-2.2-6.5-2.4c1.9-5,5.9-9,10.9-10.9
	C19.7,6.3,20.5,8.4,21.8,10.4L21.8,10.4z M26.8,10.7c-0.3-0.6-0.8-1.1-1.4-1.4l0.5-0.7l1.6,1.6L26.8,10.7z M26.2,6.1
	c0.2-0.2,0.6-0.2,0.8,0l3.3,3.3c0.2,0.2,0.2,0.6,0,0.8c-0.1,0.1-0.3,0.2-0.4,0.2l0,0c-0.2,0-0.3-0.1-0.4-0.2l-3.1-3.1l0,0l0,0
	L26.3,7C26,6.7,26,6.3,26.2,6.1L26.2,6.1z M11.1,5.9c2.2-2.2,5-3.7,8.1-4.4c0,0.3,0,0.7,0,1C16.5,3.4,14,5,11.9,7
	c-2.3,2.1-4,4.8-5,7.7c-0.3,0-0.6,0-1,0C6.7,11.3,8.5,8.2,11.1,5.9L11.1,5.9z M4.8,33.9c-0.3,0.4-0.8,0.6-1.3,0.5
	c-0.7-0.2-1.3-0.8-1.5-1.5c-0.1-0.5,0-1,0.4-1.3L14,21.3c0.3,0.4,0.6,0.8,1,1L4.8,33.9z M30.3,25.1c-2.3,2.6-5.4,4.4-8.8,5.1
	c0-0.3,0-0.6,0-1c2.9-1,5.6-2.7,7.7-5c2-2.1,3.5-4.5,4.5-7.3c0.3,0,0.7,0,1,0C34,20.1,32.5,22.9,30.3,25.1z M21.4,16.8L21.4,16.8
	c-0.3,0.2-0.4,0.7-0.2,1s0.7,0.4,1,0.1l0,0l0,0c0.3-0.3,0.3-0.7,0.1-1S21.7,16.6,21.4,16.8z"/>
  </symbol>
  <symbol
    id="mute"
    viewBox="0 0 16.7 17.7"
    fill="currentColor"
  >
    <path transform="translate(-186.938 -143.364)" d="M187.8,149.2c-0.5,0.1-0.9,0.5-0.9,1.1v3.9
	c0,0.5,0.3,1,0.9,1.1h3v-1.1H188v-3.9h2.7v-1.1H187.8z M197.8,159.2l-3.5-3.3l-0.8,0.8l4.4,4.1c0.2,0.2,0.6,0.2,0.8,0
	c0.1-0.1,0.2-0.2,0.1-0.4v-9.5l-1.1,1.2V159.2z M203.5,143.7c-0.2-0.2-0.6-0.2-0.8,0l-3.9,4.1v-3.9c0-0.3-0.2-0.6-0.6-0.6
	c-0.1,0-0.3,0.1-0.4,0.1l-5.9,5.5c-0.1,0.1-0.2,0.3-0.2,0.4v5.6c0,0.1,0,0.1,0,0.2l-4,4.3c-0.2,0.2-0.2,0.6,0,0.8
	c0.2,0.2,0.6,0.2,0.8,0l14.8-15.9C203.7,144.2,203.7,143.9,203.5,143.7C203.5,143.7,203.5,143.7,203.5,143.7z M193,149.6l4.8-4.4
	v3.8l-4.8,5.1V149.6z"/>
  </symbol>
  <symbol
    id="eye"
    viewBox="0 0 34.8 19.7"
    fill="currentColor"
  >
    <path transform="translate(0.002 -110.897)" d="M34.2,119.1c-2-2.5-4.5-4.6-7.3-6c-2.9-1.4-6-2.2-9.2-2.2
	c-0.1,0-0.4,0-0.5,0c-3.2,0-6.4,0.8-9.2,2.2c-2.8,1.4-5.3,3.5-7.3,6c-0.8,1-0.8,2.3,0,3.3c2,2.5,4.5,4.6,7.3,6
	c2.9,1.4,6,2.2,9.2,2.2c0.1,0,0.4,0,0.5,0c3.2,0,6.4-0.8,9.2-2.2c2.8-1.4,5.3-3.5,7.3-6C35,121.4,35,120.1,34.2,119.1z M8.5,127.1
	c-2.7-1.3-5-3.2-6.8-5.6c-0.4-0.5-0.4-1.1,0-1.5c2.3-3,5.5-5.3,9.1-6.6c-4,3.6-4.4,9.8-0.8,13.9c0.2,0.3,0.5,0.5,0.8,0.8
	C10,127.8,9.2,127.5,8.5,127.1z M17.4,129.2c-4.7,0-8.4-3.8-8.4-8.4c0-4.7,3.8-8.4,8.4-8.4s8.4,3.8,8.4,8.4
	C25.8,125.4,22,129.2,17.4,129.2L17.4,129.2z M33.1,121.5c-2.3,3-5.5,5.3-9.1,6.6c4-3.6,4.4-9.8,0.8-13.9c-0.2-0.3-0.5-0.5-0.8-0.8
	c3.6,1.3,6.8,3.5,9.1,6.6C33.4,120.4,33.4,121.1,33.1,121.5L33.1,121.5z M17.4,117.1c-2,0-3.6,1.6-3.6,3.6s1.6,3.6,3.6,3.6
	s3.6-1.6,3.6-3.6l0,0C21,118.8,19.4,117.1,17.4,117.1z M17.4,122.9c-1.2,0-2.2-1-2.2-2.2c0-1.2,1-2.2,2.2-2.2c1.2,0,2.2,1,2.2,2.2
	l0,0C19.6,122,18.6,122.9,17.4,122.9C17.4,122.9,17.4,122.9,17.4,122.9L17.4,122.9z"/>
  </symbol>
  <symbol
    id="papirus"
    viewBox="0 0 27.055 22.56"
  >
    <g fill="none" stroke="currentColor" stroke-width="1.5" transform="translate(-288.25 -135.251)">
      <path d="M303.926,138.243c-2.588,0-9.926-2.093-9.926-2.093" transform="translate(-2.222 -0.066)" stroke-linejoin="round"/>
      <path d="M317.667,150.325a3.333,3.333,0,1,1-3.333-3.333A3.333,3.333,0,0,1,317.667,150.325Z" transform="translate(-9.778 -4.885)" stroke-miterlimit="10"/>
      <path d="M322.336,154.073c2.144.374,4.512.651,5.369.7a7.573,7.573,0,0,1-.556-2.778" transform="translate(-14.816 -7.107)" stroke-linejoin="round"/>
      <path d="M320.5,144.914l5.665.381a6.753,6.753,0,0,0,1.121-4.242c0-1.978-.648-3.818-1.667-4.243,0,0-6.377,1.612-7.97,1.612" transform="translate(-12.735 -0.36)" stroke-linejoin="round"/>
      <path d="M292.333,139.889h-1.111a9.609,9.609,0,0,0-.329,2.445c0,1.808.656,2.863.926,2.863.933,0,1.626-1.66,1.626-3.844,0-3.484-1.029-5.352-2.018-5.352-1.189,0-2.426,2.187-2.426,6.108a9.9,9.9,0,0,0,1.667,6.11s8.642-1.507,10.736-1.657" stroke-linejoin="round"/>
      <path d="M294.482,151.824s5.654-.671,9.363-.813" transform="translate(-2.437 -6.671)" stroke-linejoin="round"/>
      <path d="M312.941,143.892c.007-.151.011-.3.011-.452a5.883,5.883,0,0,0-1.231-3.976.274.274,0,0,1,.2-.464h2.141c1.227,0,2.222,1.988,2.222,4.442,0,.147,0,.292-.011.439" transform="translate(-10.064 -1.333)" stroke-linejoin="round"/>
      <path d="M317.333,158v7.778l-1.667-1.667L314,165.778V158" transform="translate(-11.111 -9.778)" stroke-miterlimit="10"/>
    </g>
  </symbol>
  <symbol
    id="user2"
    viewBox="0 0 21.9 20.4"
    fill="none"
    stroke="currentColor"
    stroke-width="2"
    stroke-linecap="round"
    stroke-linejoin="round"
  >
    <path transform="translate(-164.566 -239.47)" d="M175.5,240.5c2.7,0,4.9,2.2,4.9,5s-2.2,5-4.9,5
	s-4.9-2.2-4.9-5S172.8,240.5,175.5,240.5z M165.9,258.5c0.8-1.5,2-2.9,3.4-3.9c1.8-1.2,3.9,0,6.2,0s4.4-1.2,6.2,0
	c1.4,1,2.6,2.3,3.4,3.9 M175.5,240.5c2.7,0,4.9,2.2,4.9,5s-2.2,5-4.9,5s-4.9-2.2-4.9-5S172.8,240.5,175.5,240.5z M165.9,258.5
	c0.8-1.5,2-2.9,3.4-3.9c1.8-1.2,3.9,0,6.2,0s4.4-1.2,6.2,0c1.4,1,2.6,2.3,3.4,3.9"/>
  </symbol>
  <symbol
    id="statistics"
    viewBox="0 0 17.065 17.334"
    fill="currentColor"
  >
    <g transform="translate(-280.076 -872.48)">
      <path d="M296.341,889.814h-3.733c-0.442,0-0.8-0.358-0.8-0.8v-12c0-0.442,0.358-0.8,0.8-0.8h3.733
        c0.442,0,0.8,0.358,0.8,0.8v12C297.141,889.456,296.783,889.814,296.341,889.814z M293.408,888.214h2.133v-10.4h-2.133
        L293.408,888.214z M290.475,889.814h-3.733c-0.442,0-0.8-0.358-0.8-0.8V873.28c0-0.442,0.358-0.8,0.8-0.8h3.733
        c0.442,0,0.8,0.358,0.8,0.8v15.734C291.275,889.456,290.917,889.814,290.475,889.814
        C290.475,889.814,290.474,889.814,290.475,889.814L290.475,889.814z M287.542,888.214h2.133V874.08h-2.133V888.214z
        M284.609,889.814h-3.733c-0.442,0-0.8-0.358-0.8-0.8v-9.6c0-0.442,0.358-0.8,0.8-0.8h3.733c0.442,0,0.8,0.358,0.8,0.8v9.6
        C285.409,889.456,285.051,889.814,284.609,889.814c-0.001,0-0.001,0-0.002,0H284.609z M281.676,888.214h2.133v-8h-2.133V888.214z" />
    </g>
  </symbol>
  <symbol
    id="payout"
    viewBox="18.063 19.517"
    fill="currentColor"
  >
    <path d="M17.586,11.383l-2.848-5.21V6.109h2.174c0.254,0.017,0.475-0.174,0.495-0.428V0.429
	c-0.02-0.254-0.241-0.445-0.495-0.428H0.495C0.241-0.016,0.02,0.175,0,0.429v5.252c0.02,0.254,0.241,0.445,0.495,0.428h2.379v7.228
	c0.096,1.228,1.162,2.15,2.391,2.069h5.543l0.084,0.656c0.129,0.948,0.537,1.836,1.172,2.552v0.473
	c0.039,0.273,0.292,0.463,0.566,0.424c0.22-0.031,0.393-0.204,0.424-0.424v-0.618c0-0.096-0.036-0.189-0.1-0.261l-0.08-0.09
	c-0.541-0.601-0.89-1.35-1-2.151l-0.212-1.623l-0.9-3.2c0.554,0.129,1.051,0.436,1.413,0.874l1.655,2.067
	c0.137,0.158,0.353,0.223,0.554,0.165c0.195-0.042,0.337-0.21,0.347-0.409V8.157l1.958,3.584c0.401,0.721,0.493,1.575,0.253,2.365
	l-0.994,3.262c-0.01,0.035-0.016,0.072-0.016,0.109v1.607c0.039,0.273,0.292,0.463,0.566,0.424c0.22-0.031,0.393-0.204,0.424-0.424
	v-1.547l0.977-3.209C18.197,13.344,18.084,12.282,17.586,11.383z M13.748,6.233c0,0.009-0.005,0.017-0.005,0.026v6.22l-0.753-0.941
	c-0.635-0.759-1.549-1.23-2.536-1.308c-0.22-0.024-0.439,0.049-0.6,0.2c-0.148,0.139-0.208,0.348-0.155,0.544l0.994,3.522
	l0.007,0.057H5.267c-0.72,0.047-1.344-0.494-1.4-1.213V3.114h9.885L13.748,6.233z M14.243,2.258H3.368
	C3.114,2.241,2.893,2.432,2.873,2.686v2.567H0.989v-4.4h15.428v4.4h-1.679V2.686C14.718,2.432,14.497,2.241,14.243,2.258z"/>
  </symbol>
  <symbol
    id="arrow-down"
    viewBox="0 0 15.924 8.492"
    fill="none"
    stroke="currentColor"
    stroke-width="1.5"
    stroke-linecap="round"
    stroke-linejoin="round"
  >
    <path d="M0.75,0.75l7.212,7.212l7.212-7.212"/>
  </symbol>
  <symbol
    id="arrow-left"
    viewBox="0 0 8.492 15.924"
    fill="none"
    stroke="currentColor"
    stroke-width="1.5"
    stroke-linecap="round"
    stroke-linejoin="round"
  >
    <path d="M7.742,0.75L0.53,7.962l7.212,7.212"/>
  </symbol>
  <symbol
    id="star"
    viewBox="0 0 16.277 15.637"
    fill="currentColor"
    stroke="currentColor"
  >
    <path d="M15.45,7.133c0.432-0.427,0.436-1.123,0.009-1.556c-0.167-0.169-0.383-0.279-0.617-0.314
      l-3.7-0.538c-0.158-0.023-0.294-0.122-0.364-0.265L9.122,1.107C8.849,0.564,8.188,0.345,7.645,0.617
      C7.434,0.723,7.262,0.895,7.156,1.107L5.5,4.461C5.429,4.604,5.293,4.703,5.135,4.726l-3.7,0.538
      C0.834,5.355,0.421,5.916,0.513,6.516c0.036,0.234,0.146,0.451,0.314,0.617l2.678,2.61c0.114,0.111,0.167,0.272,0.14,0.429
      l-0.633,3.686c-0.099,0.599,0.307,1.165,0.907,1.264c0.233,0.038,0.473,0.001,0.683-0.108l3.31-1.74c0.141-0.074,0.31-0.074,0.451,0
      l3.31,1.74c0.54,0.279,1.203,0.067,1.482-0.473c0.109-0.21,0.146-0.45,0.108-0.683l-0.632-3.686
      c-0.027-0.157,0.025-0.318,0.14-0.429L15.45,7.133z M12.029,10.276l0.632,3.686c0.045,0.264-0.132,0.514-0.396,0.558
      c-0.104,0.018-0.211,0.001-0.304-0.047l-3.31-1.741c-0.32-0.168-0.701-0.168-1.021,0l-3.31,1.74
      c-0.237,0.123-0.529,0.031-0.653-0.207c-0.049-0.094-0.065-0.2-0.047-0.304l0.632-3.686c0.06-0.355-0.057-0.718-0.315-0.97
      l-2.683-2.61C1.062,6.508,1.058,6.202,1.244,6.01c0.074-0.077,0.172-0.126,0.278-0.142l3.7-0.538c0.357-0.052,0.666-0.277,0.826-0.6
      l1.656-3.353c0.118-0.24,0.409-0.338,0.648-0.22c0.095,0.047,0.173,0.124,0.22,0.22l1.656,3.354c0.159,0.324,0.468,0.548,0.825,0.6
      l3.7,0.538c0.265,0.038,0.448,0.284,0.41,0.548c-0.015,0.106-0.065,0.203-0.142,0.278l-2.678,2.61
      C12.086,9.558,11.968,9.92,12.029,10.276z"/>
  </symbol>
  <symbol
    id="award"
    viewBox="0 0 132.892 95.159"
    fill="currentColor"
  >
    <path transform="translate(0.001 -0.499)" d="M57.363,87.445c-12.627-3.674-23.177-12.397-29.157-24.109
	c-0.883-1.732-1.657-3.516-2.318-5.344c-4.043-11.184-3.764-23.474,0.781-34.463c0.313-0.06,0.417-0.08,0.54-0.117
	c1.447-0.433,2.797-1.14,3.976-2.083c3.028-2.406,4.791-6.063,4.787-9.93c-0.033-3.707-1.323-7.293-3.66-10.17
	c-0.518-0.645-1.388-0.892-2.168-0.617c-3.503,1.211-6.491,3.577-8.474,6.709c-2.043,3.283-2.474,7.32-1.171,10.961
	c0.504,1.423,1.278,2.736,2.279,3.867c0.05,0.056,0.1,0.1,0.171,0.173c-0.623,1.527-1.171,3.08-1.643,4.66
	c-1.453-2.213-3.559-3.919-6.026-4.879c-3.466-1.309-7.274-1.403-10.8-0.267c-0.79,0.25-1.336,0.972-1.361,1.8
	c-0.138,3.703,0.986,7.344,3.187,10.325c2.323,3.094,5.932,4.957,9.8,5.058c0.121,0,0.241,0.005,0.362,0.005
	c0.935-0.002,1.865-0.116,2.773-0.339c-0.128,2.14-0.122,4.286,0.018,6.426c-2.489-1.953-5.618-2.904-8.773-2.665
	c-3.696,0.311-7.176,1.869-9.87,4.417c-0.604,0.565-0.785,1.45-0.453,2.207c1.472,3.402,4.057,6.203,7.329,7.945
	c3.428,1.79,7.486,1.916,11.018,0.342c0.924-0.408,1.791-0.935,2.579-1.566c0.702,2.49,1.592,4.924,2.664,7.279
	c-2.346-0.563-4.803-0.45-7.087,0.326c-3.497,1.228-6.474,3.608-8.441,6.75c-0.444,0.699-0.398,1.602,0.114,2.252
	c2.279,2.924,5.483,4.987,9.088,5.851c0.948,0.211,1.917,0.319,2.888,0.32c2.858-0.001,5.631-0.972,7.864-2.755
	c0.778-0.616,1.475-1.329,2.073-2.121c0.333,0.417,0.67,0.829,1.01,1.237c1.264,1.497,2.612,2.922,4.037,4.268
	c-2.162,0.368-4.193,1.284-5.9,2.661c-2.856,2.358-4.828,5.615-5.592,9.239c-0.174,0.808,0.18,1.639,0.885,2.072
	c2.595,1.601,5.578,2.462,8.627,2.488c0.643,0,1.285-0.042,1.922-0.128c3.838-0.483,7.245-2.692,9.25-6
	c0.522-0.854,0.933-1.771,1.221-2.73c3.348,1.85,6.891,3.321,10.565,4.386c0.177,0.051,0.36,0.077,0.544,0.077
	c1.077-0.001,1.949-0.875,1.948-1.952c-0.001-0.867-0.574-1.63-1.407-1.871L57.363,87.445z M23.715,13.429
	c0.085-1.128,0.37-2.232,0.843-3.259c1.16-2.383,3.129-4.277,5.556-5.343c3.451,5.265,1.994,10.756-1.373,13.465
	c-0.831,0.669-2.2,1.724-3.232,1.065c-1.719-1.093-1.923-4.131-1.794-5.927V13.429z M19.055,51.198
	c-0.016,0.195-0.054,0.388-0.114,0.575c-0.354,0.922-1.08,1.653-2,2.012c-3.959,1.734-9.5,0.49-12.576-5
	c-0.171-0.307,3.315-1.766,3.667-1.876c1.434-0.459,2.945-0.632,4.446-0.51c1.471,0.112,2.887,0.608,4.107,1.438
	C17.628,48.566,19.164,49.816,19.055,51.198z M17.955,34.978c-0.566,0.127-1.148,0.175-1.727,0.141
	c-4.319-0.14-8.785-3.651-9.192-9.934c6.16-1.314,10.75,2.033,12.057,6.151C19.603,32.941,19.867,34.483,17.955,34.978z
	 M27.565,70.519c-0.14,0.889-1.137,1.709-1.8,2.228c-3.4,2.673-9.074,2.86-13.43-1.686c1.608-2.159,3.942-3.663,6.572-4.237
	c2.281-0.441,7.967,0.31,8.638,3.207c0.037,0.16,0.043,0.327,0.016,0.489L27.565,70.519z M41.172,87.491
	c-2.265,3.681-7.528,5.816-13.186,3.052c0.855-2.875,2.877-5.26,5.573-6.575c1.862-0.863,6.057-1.866,7.859-0.388
	c0.381,0.289,0.633,0.717,0.7,1.19C42.103,85.755,41.771,86.709,41.172,87.491z M85.756,74.086c0.931-0.672,1.397-1.816,1.2-2.947
	l-3.082-17.968l13.055-12.726c1.192-1.161,1.217-3.069,0.056-4.261c-0.463-0.475-1.069-0.784-1.726-0.879l-18.042-2.622
	l-8.068-16.348c-0.737-1.493-2.544-2.105-4.037-1.368c-0.594,0.293-1.075,0.774-1.368,1.368l-3.317,6.719
	c-0.477,0.966-0.079,2.136,0.887,2.613c0.966,0.477,2.136,0.079,2.613-0.887l2.523-5.113l7.481,15.158
	c0.439,0.889,1.287,1.506,2.269,1.649l16.728,2.43l-12.105,11.8c-0.71,0.692-1.034,1.69-0.866,2.667l2.857,16.661l-14.961-7.866
	c-0.876-0.461-1.924-0.461-2.8,0l-14.961,7.866l2.857-16.66c0.168-0.978-0.156-1.976-0.867-2.668l-12.1-11.8l16.728-2.43
	c0.982-0.143,1.83-0.76,2.269-1.649l0.945-1.914c0.477-0.967,0.079-2.136-0.887-2.613c-0.966-0.477-2.136-0.079-2.613,0.887
	l-0.739,1.5l-18.05,2.62c-1.648,0.24-2.789,1.771-2.548,3.418c0.095,0.655,0.404,1.26,0.877,1.723l13.055,12.725L45.938,71.14
	c-0.284,1.637,0.813,3.195,2.45,3.479c0.655,0.114,1.329,0.007,1.917-0.302l16.137-8.484l16.137,8.484
	c1.014,0.539,2.248,0.45,3.174-0.229L85.756,74.086z M59.197,8.158c0.157,1.065,1.147,1.802,2.212,1.645
	c1.065-0.157,1.802-1.147,1.645-2.212l0,0l-0.767-5.2c-0.157-1.065-1.147-1.802-2.212-1.645c-1.065,0.157-1.802,1.147-1.645,2.212
	l0,0L59.197,8.158z M50.266,13.881c0.553,0.924,1.75,1.225,2.674,0.673c0.924-0.553,1.225-1.75,0.673-2.674
	c-0.01-0.017-0.02-0.034-0.031-0.05l-2.637-4.253C50.396,6.65,49.2,6.345,48.275,6.895s-1.231,1.745-0.681,2.671
	c0.012,0.021,0.025,0.041,0.038,0.062L50.266,13.881z M71.786,9.803c1.063,0.158,2.053-0.576,2.211-1.639
	c0-0.002,0.001-0.004,0.001-0.006l0.766-5.2c0.157-1.065-0.58-2.055-1.645-2.212c-1.065-0.157-2.055,0.58-2.212,1.645l0,0
	l-0.766,5.2c-0.157,1.064,0.578,2.054,1.643,2.212C71.785,9.803,71.786,9.803,71.786,9.803z M80.246,14.513
	c0.915,0.567,2.115,0.284,2.682-0.63c0-0.001,0.001-0.001,0.001-0.002l2.633-4.254c0.567-0.915,0.284-2.117-0.632-2.684
	c-0.915-0.567-2.117-0.284-2.684,0.632l-2.633,4.254C79.048,12.745,79.331,13.946,80.246,14.513z M132.278,46.863
	c-2.693-2.548-6.172-4.105-9.866-4.416c-3.155-0.24-6.285,0.711-8.774,2.664c0.14-2.139,0.146-4.285,0.019-6.425
	c0.907,0.223,1.838,0.337,2.772,0.339c0.122,0,0.242,0,0.363-0.006c3.867-0.101,7.477-1.963,9.8-5.057
	c2.202-2.982,3.327-6.623,3.189-10.328c-0.025-0.828-0.571-1.55-1.361-1.8c-3.526-1.137-7.334-1.043-10.8,0.267
	c-2.467,0.96-4.574,2.665-6.026,4.878c-0.471-1.578-1.019-3.131-1.643-4.659c0.06-0.055,0.117-0.113,0.171-0.174
	c1.001-1.131,1.775-2.444,2.279-3.867c1.304-3.641,0.873-7.678-1.17-10.962c-1.986-3.132-4.977-5.497-8.483-6.707
	c-0.78-0.275-1.649-0.027-2.167,0.618c-2.337,2.877-3.628,6.462-3.66,10.169c-0.004,3.867,1.759,7.525,4.787,9.93
	c1.179,0.943,2.528,1.651,3.975,2.084c0.178,0.048,0.359,0.087,0.541,0.116c5.932,14.324,4.522,30.639-3.78,43.733
	c-2.572,4.034-5.733,7.66-9.378,10.758c-1.546,1.37-3.205,2.608-4.958,3.7c-1.764,1.05-3.566,2.125-5.42,3.005
	c-2.309,1.096-4.703,2.005-7.158,2.717c-1.034,0.3-1.629,1.381-1.33,2.414c0.241,0.833,1.004,1.406,1.872,1.407
	c0.184,0,0.367-0.026,0.544-0.077c3.674-1.064,7.217-2.534,10.565-4.383c0.288,0.959,0.698,1.876,1.221,2.73
	c1.139,1.884,2.753,3.435,4.679,4.5c0.939,0.526,2.127,0.192,2.653-0.747c0.526-0.939,0.192-2.127-0.747-2.653
	c-0.008-0.005-0.016-0.009-0.025-0.014c-1.335-0.743-2.453-1.823-3.241-3.133c-0.946-1.537-1.252-3.246,0.688-4.007
	c5.434-2.129,10.857,1.929,12.495,7.05c-0.857,0.407-1.757,0.719-2.682,0.929c-1.05,0.237-1.709,1.281-1.471,2.331
	c0.201,0.888,0.99,1.519,1.9,1.519c0.146,0,0.291-0.016,0.433-0.049c1.809-0.411,3.537-1.117,5.116-2.09
	c0.704-0.433,1.059-1.263,0.885-2.071c-0.762-3.628-2.734-6.889-5.593-9.249c-1.707-1.377-3.738-2.293-5.9-2.661
	c1.424-1.344,2.771-2.768,4.035-4.264c0.345-0.408,0.68-0.821,1.011-1.238c0.598,0.793,1.294,1.506,2.072,2.122
	c2.234,1.783,5.007,2.754,7.865,2.754c0.971-0.001,1.939-0.108,2.887-0.32c3.604-0.864,6.809-2.927,9.088-5.85
	c0.512-0.65,0.558-1.552,0.116-2.251c-1.968-3.141-4.945-5.521-8.442-6.75c-2.284-0.776-4.741-0.889-7.087-0.326
	c1.072-2.355,1.962-4.789,2.664-7.279c0.788,0.632,1.655,1.158,2.579,1.567c3.533,1.573,7.59,1.447,11.018-0.343
	c3.273-1.741,5.857-4.543,7.329-7.945c0.331-0.757,0.15-1.641-0.453-2.206L132.278,46.863z M109.03,15.84
	c-0.248,1.237-0.532,3.32-2.1,3.555c-1.041,0.052-2.053-0.349-2.775-1.1c-3.366-2.71-4.824-8.2-1.372-13.465
	c0.288-0.44,3.794,2.7,4.1,3.06c0.961,1.131,1.655,2.464,2.03,3.9c0.343,1.325,0.385,2.71,0.122,4.053L109.03,15.84z
	 M120.554,71.063c-4.356,4.546-10.033,4.359-13.43,1.686c-0.77-0.61-1.418-1.36-1.91-2.21c-0.025-0.056-0.062-0.139-0.1-0.232
	c0.166-0.249,0.33-0.5,0.493-0.752c0.506-0.6,1.101-1.121,1.763-1.543c3.651-2.311,9.318-1.917,13.185,3.051H120.554z M113.8,31.338
	c1.308-4.12,5.9-7.465,12.057-6.151c-0.407,6.283-4.873,9.795-9.192,9.934c-1.042,0.035-2.719,0.047-3.172-1.105
	C113.309,33.113,113.416,32.175,113.8,31.338L113.8,31.338z M115.948,53.787c-0.961-0.287-1.787-0.907-2.331-1.749
	c-0.909-1.984,2.122-3.765,3.416-4.5c1.058-0.601,2.224-0.989,3.431-1.143c2.897-0.298,5.795,0.562,8.061,2.391
	c-3.076,5.494-8.618,6.738-12.577,5V53.787z"/>
  </symbol>
  <symbol
    id="dollars"
    viewBox="0 0 147.243 93.565"
    fill="currentColor"
  >
    <path d="M73.47,76.087c5.845-0.273,9.878-2.41,12.1-6.409c1.195-2.182,1.796-4.639,1.743-7.126
	c0-4.273-1.572-7.52-4.717-9.741c-1.811-1.299-4.853-2.529-9.126-3.691V76.087z M56.089,26.612c-0.155,3.023,1.081,5.95,3.355,7.947
	c2.622,2.089,5.739,3.466,9.049,4v-24.1c-4.477,0.171-7.665,1.537-9.562,4.1C57.126,20.859,56.128,23.689,56.089,26.612z
	 M46.86,27.227c0.019-5.245,2.068-10.28,5.717-14.048c3.811-4.17,9.152-6.29,16.022-6.36V0h4.871v6.719
	c6.8,0.479,12.021,2.487,15.663,6.024s5.548,8.211,5.717,14.022h-8.973c-0.167-2.372-0.886-4.672-2.1-6.716
	c-2.155-3.452-5.591-5.262-10.307-5.43v24.917c7.93,2.222,13.313,4.307,16.15,6.255c4.616,3.21,6.924,7.96,6.924,14.249
	c0,9.091-2.958,15.551-8.873,19.379c-3.281,2.119-8.015,3.519-14.2,4.2v9.946h-4.872v-9.946
	c-9.946-0.647-16.698-4.166-20.255-10.557c-1.948-3.452-2.922-8.119-2.922-14h9.075c0.273,4.683,1.007,8.101,2.2,10.254
	c2.119,3.862,6.05,6.032,11.792,6.511V47.889c-7.378-1.401-12.826-3.743-16.345-7.024c-3.519-3.281-5.28-7.827-5.283-13.638
	L46.86,27.227z M134.044,65.372c3.34-0.156,5.645-1.377,6.914-3.662c0.684-1.246,1.029-2.651,1-4.072
	c0.119-2.197-0.901-4.3-2.7-5.566c-1.61-0.985-3.372-1.698-5.214-2.11V65.372z M124.113,37.101c-0.089,1.727,0.618,3.4,1.919,4.541
	c1.499,1.193,3.28,1.98,5.171,2.285v-13.77c-2.559,0.097-4.38,0.879-5.464,2.344C124.707,33.815,124.136,35.431,124.113,37.101z
	 M118.844,37.452c0.011-2.997,1.182-5.874,3.267-8.027c2.178-2.383,5.23-3.594,9.155-3.633v-3.9h2.778v3.838
	c3.887,0.273,6.87,1.421,8.95,3.442c2.123,2.122,3.301,5.011,3.267,8.013h-5.127c-0.095-1.355-0.506-2.67-1.2-3.838
	c-1.279-2-3.517-3.178-5.89-3.102v14.238c4.533,1.267,7.61,2.458,9.229,3.574c2.643,1.844,4.14,4.927,3.955,8.145
	c0,5.195-1.689,8.887-5.068,11.074c-2.49,1.403-5.264,2.224-8.116,2.403v5.683h-2.783v-5.683c-5.683-0.373-9.541-2.385-11.572-6.035
	c-1.227-2.481-1.802-5.235-1.67-8h5.186c0.003,2.02,0.432,4.017,1.259,5.861c1.211,2.209,3.458,3.45,6.739,3.721V49.259
	c-4.219-0.8-7.334-2.138-9.346-4.014C119.778,43.202,118.68,40.362,118.844,37.452z M16.044,65.372
	c3.34-0.156,5.645-1.377,6.914-3.662c0.684-1.246,1.029-2.651,1-4.072c0.119-2.197-0.901-4.3-2.7-5.566
	c-1.61-0.985-3.372-1.698-5.214-2.11V65.372z M6.113,37.101c-0.089,1.727,0.618,3.4,1.919,4.541c1.499,1.193,3.28,1.98,5.171,2.285
	v-13.77c-2.559,0.097-4.38,0.879-5.464,2.344C6.707,33.815,6.136,35.431,6.113,37.101z M0.844,37.452
	c0.011-2.997,1.182-5.874,3.267-8.027c2.178-2.383,5.23-3.594,9.155-3.633v-3.9h2.778v3.838c3.887,0.273,6.87,1.421,8.95,3.442
	c2.123,2.122,3.301,5.011,3.267,8.013h-5.127c-0.095-1.355-0.506-2.67-1.2-3.838c-1.279-2-3.517-3.178-5.89-3.102v14.238
	c4.533,1.267,7.61,2.458,9.229,3.574c2.643,1.844,4.14,4.927,3.955,8.145c0,5.195-1.689,8.887-5.068,11.074
	c-2.49,1.403-5.264,2.224-8.116,2.403v5.683h-2.783v-5.683c-5.683-0.373-9.541-2.385-11.572-6.035c-1.227-2.481-1.802-5.235-1.67-8
	h5.186c0.003,2.02,0.432,4.017,1.259,5.861c1.211,2.209,3.458,3.45,6.739,3.721V49.259c-4.219-0.8-7.334-2.138-9.346-4.014
	C1.778,43.202,0.68,40.362,0.844,37.452z"/>
  </symbol>
  <symbol
    id="plus-circle"
    viewBox="0 0 19 19"
  >
    <g transform="translate(0.318)">
      <g transform="translate(-0.318)" fill="none" stroke="currentColor" stroke-width="1.5">
        <circle cx="9.5" cy="9.5" r="9.5" stroke="none"/>
        <circle cx="9.5" cy="9.5" r="8.75" fill="none"/>
      </g>
      <line y2="7" transform="translate(9.306 6)" fill="none" stroke="currentColor" stroke-linecap="round" stroke-width="1.5"/>
      <line y2="7" transform="translate(12.806 9.5) rotate(90)" fill="none" stroke="currentColor" stroke-linecap="round" stroke-width="1.5"/>
    </g>
  </symbol>
  <symbol
    id="lightning"
    viewBox="0 0 21.113 25.342"
    fill="currentColor"
  >
    <path d="M6.332,25.342l3.168-9.5H0L14.779,0l-3.166,9.5h9.5L6.332,25.342z"/>
  </symbol>
  <symbol
    id="logout"
    viewBox="0 0 20.904 20.906"
    fill="currentColor"
    stroke="currentColor"
  >
    <g transform="translate(-131.833 -131.833)">
      <g transform="translate(132.333 132.333)">
        <g transform="translate(0)">
          <g transform="translate(7.299 5.308)">
            <g transform="translate(7.298)">
              <path d="M0.663,9.291C0.296,9.29-0.001,8.993,0,8.626C0,8.45,0.07,8.282,0.194,8.158l3.512-3.512L0.194,1.134c-0.259-0.259-0.259-0.679,0-0.938s0.679-0.259,0.938,0l3.981,3.981c0.259,0.259,0.259,0.679,0,0.938c0,0,0,0,0,0L1.132,9.096C1.008,9.221,0.839,9.291,0.663,9.291z"/>
            </g>
            <g transform="translate(0 3.981)">
              <path d="M11.279,1.328H0.663c-0.366,0-0.663-0.297-0.663-0.663s0.297-0.663,0.663-0.663l0,0h10.616c0.366,0,0.663,0.297,0.663,0.663S11.645,1.328,11.279,1.328z"/>
            </g>
          </g>
          <path d="M11.28,19.906H3.318C1.486,19.904,0.002,18.42,0,16.588V3.318C0.002,1.486,1.486,0.002,3.318,0h7.962c0.366,0.014,0.652,0.323,0.638,0.689c-0.013,0.346-0.291,0.624-0.638,0.638H3.318C2.22,1.329,1.33,2.219,1.328,3.317v13.27c0.002,1.098,0.892,1.988,1.99,1.99h7.962c0.366,0.014,0.652,0.323,0.638,0.689c-0.013,0.346-0.291,0.624-0.638,0.638V19.906z"/>
        </g>
      </g>
    </g>
  </symbol>
  <symbol
    id="settings"
    viewBox="0 0 23.482 23.475"
    fill="currentColor"
  >
    <g transform="translate(-264.654 -264.655)">
      <path d="M286.928,273.923l-0.412-0.07l-0.412-0.07l-0.412-0.07l-0.412-0.07c-0.043-0.139-0.089-0.276-0.138-0.412c-0.049-0.136-0.101-0.269-0.156-0.4c-0.055-0.133-0.114-0.267-0.175-0.4c-0.061-0.133-0.126-0.262-0.193-0.387l0.243-0.34l0.243-0.34l0.243-0.34l0.243-0.34c0.2-0.28,0.294-0.621,0.265-0.964c-0.029-0.341-0.179-0.66-0.422-0.9l-0.365-0.365l-0.365-0.365l-0.365-0.365l-0.365-0.365c-0.068-0.068-0.142-0.129-0.221-0.182c-0.157-0.106-0.333-0.179-0.519-0.216c-0.168-0.034-0.341-0.037-0.51-0.011c-0.147,0.023-0.289,0.069-0.422,0.136c-0.067,0.034-0.131,0.073-0.192,0.117l-0.341,0.243l-0.341,0.243l-0.341,0.243l-0.341,0.243c-0.133-0.067-0.267-0.133-0.4-0.2c-0.133-0.067-0.27-0.127-0.41-0.181c-0.138-0.057-0.278-0.11-0.419-0.161c-0.141-0.051-0.284-0.097-0.427-0.14l-0.069-0.407l-0.069-0.407l-0.069-0.407l-0.069-0.407c-0.117-0.7-0.723-1.212-1.432-1.211h-2.064c-0.71-0.002-1.316,0.511-1.432,1.211l-0.071,0.417l-0.071,0.417l-0.071,0.417l-0.071,0.417c-0.137,0.043-0.274,0.089-0.409,0.139c-0.135,0.05-0.269,0.103-0.4,0.159c-0.133,0.056-0.267,0.115-0.4,0.178s-0.262,0.129-0.387,0.2l-0.337-0.243l-0.337-0.243l-0.337-0.243l-0.337-0.243c-0.122-0.087-0.257-0.155-0.4-0.2c-0.071-0.023-0.144-0.04-0.218-0.051c-0.17-0.026-0.343-0.022-0.511,0.011c-0.186,0.037-0.363,0.11-0.52,0.216c-0.079,0.053-0.152,0.115-0.219,0.183l-0.367,0.365l-0.367,0.365l-0.367,0.365l-0.367,0.365c-0.502,0.501-0.568,1.291-0.157,1.868l0.245,0.345l0.245,0.344l0.245,0.344l0.245,0.345c-0.067,0.129-0.131,0.259-0.192,0.39s-0.119,0.265-0.172,0.4c-0.054,0.133-0.105,0.267-0.153,0.4c-0.048,0.133-0.093,0.271-0.134,0.412l-0.407,0.069l-0.407,0.069l-0.407,0.069l-0.407,0.069c-0.7,0.117-1.212,0.723-1.211,1.432v2.064c-0.001,0.709,0.511,1.315,1.211,1.432l0.417,0.071l0.417,0.071l0.417,0.071l0.417,0.071c0.043,0.137,0.089,0.274,0.139,0.409s0.103,0.269,0.159,0.4c0.056,0.133,0.115,0.267,0.178,0.4c0.063,0.133,0.129,0.262,0.2,0.387l-0.241,0.336l-0.242,0.336l-0.241,0.336l-0.242,0.336c-0.2,0.28-0.293,0.621-0.265,0.964c0.029,0.341,0.179,0.66,0.422,0.9l0.365,0.365l0.365,0.365l0.365,0.365l0.365,0.365c0.068,0.068,0.142,0.129,0.222,0.183c0.078,0.053,0.162,0.098,0.249,0.134c0.087,0.036,0.177,0.064,0.27,0.082c0.168,0.033,0.341,0.037,0.51,0.011c0.147-0.023,0.289-0.069,0.422-0.136c0.067-0.034,0.131-0.073,0.192-0.117l0.344-0.245l0.345-0.245l0.344-0.245l0.345-0.245c0.124,0.067,0.249,0.129,0.376,0.186c0.127,0.057,0.255,0.113,0.384,0.168c0.129,0.053,0.26,0.103,0.391,0.15s0.265,0.092,0.4,0.133l0.069,0.412l0.069,0.412l0.069,0.412l0.069,0.412c0.117,0.7,0.723,1.212,1.432,1.211h2.069c0.71,0.002,1.316-0.511,1.432-1.211l0.07-0.412l0.07-0.412l0.07-0.412l0.07-0.412c0.139-0.043,0.276-0.089,0.412-0.138s0.269-0.101,0.4-0.156c0.133-0.055,0.267-0.114,0.4-0.175s0.262-0.126,0.387-0.193l0.34,0.243l0.34,0.243l0.34,0.243l0.34,0.243c0.061,0.044,0.126,0.083,0.193,0.117c0.134,0.067,0.277,0.113,0.425,0.136c0.169,0.026,0.342,0.022,0.51-0.011c0.185-0.037,0.361-0.111,0.518-0.216c0.08-0.054,0.154-0.115,0.222-0.183l0.365-0.365l0.365-0.365l0.365-0.365l0.365-0.365c0.502-0.501,0.568-1.291,0.157-1.868l-0.243-0.341l-0.243-0.341l-0.243-0.341l-0.243-0.341c0.067-0.129,0.131-0.259,0.194-0.39c0.063-0.131,0.121-0.265,0.176-0.4c0.055-0.133,0.107-0.267,0.156-0.4s0.094-0.27,0.136-0.409l0.412-0.069l0.412-0.069l0.412-0.069l0.412-0.069c0.7-0.116,1.213-0.722,1.211-1.432v-2.07c0.007-0.519-0.267-1.001-0.717-1.259C287.267,274.009,287.101,273.951,286.928,273.923z M286.82,277.423h-0.005c0,0.015-0.003,0.031-0.008,0.045c-0.005,0.014-0.013,0.027-0.022,0.038c-0.01,0.011-0.021,0.021-0.034,0.028c-0.014,0.008-0.029,0.013-0.044,0.015l-0.515,0.086l-0.515,0.086l-0.515,0.086l-0.515,0.086c-0.064,0.011-0.125,0.031-0.183,0.059c-0.113,0.056-0.208,0.143-0.273,0.251c-0.033,0.054-0.057,0.113-0.073,0.175c-0.047,0.18-0.099,0.358-0.158,0.535s-0.124,0.351-0.195,0.522s-0.149,0.34-0.232,0.507c-0.083,0.167-0.173,0.33-0.268,0.491c-0.033,0.055-0.057,0.115-0.073,0.177c-0.047,0.187-0.011,0.385,0.1,0.543l0.3,0.427l0.3,0.427l0.3,0.427l0.3,0.427c0.008,0.012,0.014,0.026,0.018,0.041c0.007,0.029,0.005,0.06-0.007,0.088c-0.006,0.014-0.015,0.027-0.026,0.038l-0.365,0.365l-0.365,0.365l-0.365,0.365l-0.365,0.365c-0.008,0.008-0.017,0.015-0.026,0.021c-0.008,0.005-0.016,0.009-0.025,0.012l-0.023,0.005h-0.02h-0.021l-0.019-0.005l-0.018-0.008l-0.016-0.01l-0.425-0.3l-0.425-0.3l-0.425-0.3l-0.425-0.3c-0.052-0.037-0.109-0.067-0.17-0.087c-0.06-0.02-0.122-0.032-0.185-0.034c-0.128-0.005-0.255,0.027-0.366,0.092c-0.161,0.095-0.324,0.185-0.491,0.268c-0.167,0.083-0.336,0.161-0.507,0.232c-0.171,0.071-0.345,0.136-0.522,0.195c-0.177,0.059-0.355,0.111-0.535,0.158c-0.187,0.047-0.345,0.174-0.429,0.348c-0.028,0.057-0.047,0.118-0.057,0.181l-0.087,0.515l-0.087,0.515l-0.087,0.515l-0.087,0.515c-0.002,0.015-0.007,0.03-0.015,0.044c-0.007,0.013-0.017,0.024-0.028,0.034c-0.012,0.01-0.025,0.017-0.039,0.022c-0.014,0.005-0.03,0.008-0.045,0.008h-2.064c-0.015,0-0.031-0.003-0.045-0.008c-0.014-0.005-0.027-0.012-0.039-0.022c-0.011-0.01-0.021-0.021-0.028-0.034c-0.008-0.014-0.013-0.029-0.015-0.044l-0.086-0.515l-0.086-0.515l-0.086-0.515l-0.086-0.515c-0.011-0.064-0.031-0.125-0.059-0.183c-0.056-0.113-0.143-0.208-0.251-0.273c-0.054-0.033-0.113-0.057-0.175-0.073c-0.175-0.045-0.349-0.097-0.521-0.154c-0.172-0.057-0.342-0.121-0.51-0.19c-0.168-0.067-0.335-0.141-0.5-0.224c-0.165-0.083-0.326-0.168-0.483-0.256c-0.026-0.014-0.052-0.027-0.08-0.038c-0.027-0.011-0.055-0.02-0.083-0.028c-0.028-0.007-0.056-0.012-0.085-0.016c-0.028-0.004-0.057-0.006-0.085-0.006c-0.033,0-0.067,0.002-0.1,0.007c-0.034,0.005-0.067,0.013-0.1,0.023c-0.034,0.01-0.068,0.023-0.1,0.038c-0.031,0.015-0.061,0.033-0.089,0.054l-0.429,0.305l-0.429,0.305l-0.429,0.305l-0.429,0.305l-0.018,0.01l-0.018,0.008l-0.018,0.005h-0.018h-0.018l-0.023-0.005c-0.009-0.003-0.018-0.007-0.026-0.012c-0.009-0.006-0.018-0.013-0.026-0.021l-0.365-0.365l-0.365-0.365l-0.365-0.365l-0.365-0.365c-0.022-0.021-0.035-0.05-0.037-0.08c-0.002-0.015-0.002-0.029,0-0.044c0.004-0.015,0.01-0.03,0.018-0.043l0.3-0.423l0.3-0.423l0.3-0.423l0.3-0.423c0.037-0.053,0.067-0.111,0.087-0.173c0.061-0.184,0.04-0.386-0.058-0.553c-0.095-0.159-0.185-0.322-0.27-0.488c-0.085-0.166-0.163-0.335-0.235-0.506c-0.072-0.171-0.139-0.345-0.2-0.521s-0.115-0.354-0.16-0.535c-0.034-0.123-0.101-0.234-0.195-0.32c-0.046-0.042-0.098-0.078-0.154-0.106c-0.057-0.028-0.118-0.048-0.181-0.059l-0.519-0.088l-0.519-0.088l-0.519-0.088l-0.519-0.088c-0.015-0.002-0.03-0.007-0.044-0.015c-0.026-0.015-0.046-0.039-0.056-0.067c-0.005-0.014-0.008-0.03-0.008-0.045v-2.064c0-0.016,0.003-0.031,0.008-0.046c0.005-0.014,0.012-0.027,0.022-0.039c0.01-0.011,0.021-0.021,0.034-0.028c0.014-0.008,0.029-0.013,0.044-0.015l0.511-0.086l0.511-0.086l0.511-0.086l0.511-0.086c0.064-0.011,0.126-0.031,0.184-0.059c0.057-0.028,0.11-0.064,0.157-0.107c0.047-0.043,0.087-0.092,0.12-0.146c0.033-0.055,0.058-0.115,0.074-0.178c0.045-0.18,0.097-0.359,0.154-0.536c0.057-0.177,0.121-0.352,0.191-0.524c0.067-0.172,0.143-0.342,0.228-0.509s0.174-0.331,0.265-0.491c0.098-0.165,0.117-0.366,0.054-0.547c-0.021-0.06-0.051-0.117-0.088-0.169l-0.305-0.429l-0.305-0.429l-0.305-0.429l-0.305-0.429c-0.008-0.012-0.015-0.026-0.018-0.041c-0.007-0.029-0.005-0.06,0.007-0.088c0.006-0.014,0.015-0.027,0.026-0.038l0.365-0.365l0.365-0.365l0.365-0.365l0.365-0.365c0.008-0.008,0.017-0.015,0.026-0.021c0.008-0.005,0.016-0.009,0.025-0.012l0.023-0.005h0.02h0.021h0.019l0.018,0.008l0.016,0.01l0.423,0.3l0.423,0.3l0.423,0.3l0.423,0.3c0.215,0.151,0.499,0.163,0.726,0.029c0.159-0.095,0.322-0.185,0.488-0.27c0.166-0.085,0.335-0.163,0.506-0.235c0.171-0.072,0.345-0.139,0.521-0.2s0.354-0.115,0.535-0.16c0.123-0.034,0.234-0.101,0.32-0.195c0.042-0.046,0.078-0.098,0.106-0.154c0.028-0.057,0.048-0.118,0.059-0.181l0.088-0.519l0.088-0.519l0.088-0.519l0.088-0.519c0.002-0.015,0.007-0.03,0.015-0.044c0.007-0.013,0.017-0.024,0.028-0.034c0.012-0.01,0.025-0.017,0.039-0.022c0.014-0.005,0.03-0.008,0.045-0.008h2.065c0.015,0,0.031,0.003,0.045,0.008c0.014,0.005,0.027,0.012,0.039,0.022c0.011,0.01,0.021,0.021,0.028,0.034c0.008,0.014,0.013,0.029,0.015,0.044l0.086,0.511l0.086,0.511l0.086,0.511l0.086,0.511c0.021,0.127,0.079,0.246,0.166,0.341c0.043,0.047,0.092,0.087,0.146,0.12c0.055,0.033,0.115,0.058,0.178,0.074c0.185,0.047,0.368,0.1,0.549,0.159s0.359,0.126,0.534,0.2c0.175,0.072,0.348,0.15,0.519,0.235s0.337,0.175,0.5,0.272c0.055,0.033,0.115,0.057,0.177,0.073c0.187,0.047,0.385,0.011,0.543-0.1l0.423-0.3l0.423-0.3l0.423-0.3l0.423-0.3l0.018-0.01l0.018-0.008l0.018-0.005h0.018h0.018l0.023,0.005c0.009,0.003,0.018,0.007,0.026,0.012c0.009,0.006,0.018,0.013,0.026,0.021l0.365,0.365l0.365,0.365l0.365,0.365l0.365,0.365c0.011,0.011,0.02,0.023,0.026,0.037c0.006,0.014,0.01,0.028,0.011,0.043c0.002,0.015,0.002,0.029,0,0.044c-0.004,0.015-0.01,0.03-0.018,0.043l-0.3,0.425l-0.3,0.425l-0.3,0.425l-0.3,0.425c-0.037,0.052-0.067,0.109-0.087,0.17c-0.02,0.06-0.032,0.122-0.034,0.185c-0.005,0.128,0.027,0.255,0.092,0.366c0.095,0.161,0.185,0.324,0.268,0.491c0.083,0.167,0.161,0.336,0.232,0.507c0.071,0.171,0.136,0.345,0.195,0.522c0.059,0.177,0.111,0.355,0.158,0.535c0.047,0.188,0.174,0.345,0.348,0.429c0.057,0.028,0.118,0.047,0.181,0.057l0.515,0.087l0.515,0.087l0.515,0.087l0.515,0.087c0.015,0.002,0.03,0.007,0.044,0.015c0.013,0.007,0.024,0.017,0.034,0.028c0.01,0.012,0.017,0.025,0.022,0.039c0.005,0.014,0.008,0.03,0.008,0.045v2.064L286.82,277.423z"/>
      <path d="M276.395,271.319c-2.788,0.001-5.048,2.262-5.048,5.05s2.262,5.048,5.05,5.048c2.788-0.001,5.048-2.262,5.048-5.05c-0.001-2.027-1.213-3.857-3.079-4.648C277.742,271.455,277.072,271.319,276.395,271.319zM276.395,280.126c-2.06-0.002-3.728-1.674-3.725-3.734c0.002-2.06,1.674-3.728,3.734-3.725s3.728,1.674,3.726,3.734c-0.002,1.497-0.899,2.849-2.279,3.431C277.39,280.027,276.895,280.127,276.395,280.126z"/>
    </g>
  </symbol>
  <symbol
    id="gun"
    viewBox="0 0 196.044 57.077"
    fill="currentColor"
  >
    <path d="M3.776,0L3.417,0.285C2.917,0.711,2.797,1.435,3.132,2l0.43,4.149v0.143	c0.084,1.259-0.482,2.474-1.5,3.219H0.129c-0.267,1.159-0.115,2.375,0.429,3.433h2.5c0.229,0.911,0.825,1.688,1.645,2.146h1.72	l0.5-0.5l40.126,0.358l0.572,1.073c17.953,0.715,28.109,1.788,30.542,3.076c1.775,0.282,3.588-0.184,5.007-1.287h9.155	c0.214,0,0.5,0.214,0.644,0.644c0.085,0.161,0.156,0.328,0.215,0.5c0.087,0.326,0.135,0.662,0.143,1	c-1.073,9.371-6.938,17.882-17.667,25.679l6.938,11.444c13.876-9.942,22.173-21.601,24.892-34.977h1.427	c-0.5,2.289,0.572,3.362,3.289,3.147c0.169,0.919,1,1.564,1.932,1.5c1.731,0.231,3.475,0.351,5.221,0.358	c1.86,0.072,3,0.072,3.576,0.143c0.754,0.011,1.47-0.334,1.932-0.93c0.232-0.282,0.424-0.595,0.572-0.929	c2,1.716,4.149,5.864,6.295,12.517c0.5,2.861,1.073,4.649,1.645,5.292c2.164,0.641,4.502,0.274,6.365-1	c1.044-0.646,1.868-1.594,2.361-2.719c0.142-0.588,0.142-1.2,0-1.788c-0.073-0.438-0.244-0.853-0.5-1.215l-3.5-9.156	c-0.433-1.495-0.306-3.098,0.358-4.506c0.369-0.86,0.42-1.824,0.143-2.718c1.813-0.018,3.612,0.322,5.293,1	c15.307,6.222,30.4,13.089,45.419,20.527c1.018,0.245,2.074-0.224,2.575-1.144c0.935-7.137,2.321-14.208,4.148-21.171	c0.025-0.425-0.075-0.848-0.286-1.217c-0.137-0.268-0.414-0.434-0.715-0.429l-30.4-5.364c-1.288-0.286-3.005,0.143-5.15,1.288	l-12.589-2.576l-0.643,0.286l-5.365-0.929c-0.675-1.433-1.742-2.647-3.076-3.501h-0.143l-0.072-0.071	c-0.507-0.891-1.133-1.709-1.859-2.433c-0.533-0.53-1.248-0.837-2-0.858H133.6L88.249,3.361L88.035,2.5h-1.359	c-0.286-0.215-0.286-0.43-0.072-0.645c0.008-0.054,0.033-0.104,0.072-0.143h2.288V0.429c0-0.143-0.214-0.215-0.643-0.215	c-0.286,0.144-0.43,0.429-0.43,1h-1.5c-0.716-0.929-1.432-1-2.147-0.214l0,0c-1.216-0.545-2.629-0.409-3.719,0.358V0.715h-2	c-0.173-0.304-0.511-0.473-0.858-0.43l-0.572,0.43h-1.5v0.5c-1.577-0.643-2.437,0.072-2.578,2.146	c-0.183-0.59-0.501-1.129-0.93-1.573L48.266,2.5c-0.296,0.012-0.565,0.173-0.715,0.428c-0.141,0.127-0.22,0.31-0.215,0.5H29.669	c-0.98,1.824-2.289,3.451-3.862,4.798L23.59,9.012l-0.715,0.93H10.5v-1.5L7.281,2.431c0.137-0.167,0.235-0.362,0.286-0.572	c0.306-0.653,0.024-1.431-0.629-1.736C6.776,0.047,6.601,0.005,6.423,0H3.776z M8.068,13.3h2.149v-0.64h13.086l0.286,1.288H7.496	L8.068,13.3z M31.958,8.079h12.3V9.8h-12.3V8.079z M44.404,13.945H31.743v-0.931h12.661L44.404,13.945z M113.57,19.953	c0-0.358,0.286-0.572,0.715-0.5h5.293c0.43,0.302,0.815,0.664,1.144,1.073c0.146,0.199,0.266,0.415,0.358,0.644	c0.063,0.159,0.088,0.33,0.071,0.5c0.086,1.608-1.113,2.997-2.717,3.147l0.715,0.429c1.002,0.001,1.96-0.413,2.646-1.144	c0.702-0.729,1.088-1.706,1.073-2.718c0.455,0,0.893-0.179,1.216-0.5c0.244-0.234,0.417-0.531,0.5-0.858l-0.286,4.076l0.428,0.573	c-0.102,0.179-0.222,0.346-0.358,0.5c-0.374,0.538-0.989,0.859-1.644,0.858c-0.572,0-1.645-0.072-3.219-0.072	c-1.645-0.071-3.219-0.214-4.793-0.358c-0.409-0.054-0.8-0.201-1.144-0.429L113.57,19.953z"/>
  </symbol>
  <symbol
    id="hands"
    viewBox="0 0 26.294 26.685"
    fill="none"
    stroke-width="1.5"
    stroke="currentColor"
  >
    <g transform="translate(-128.135 -208.135)">
      <path d="M140.699,225.361l-3.881-3.881c-0.42-0.449-0.406-1.151,0.031-1.584l0.745-0.745"/>
      <path d="M143.804,222.26l-5.046-5.046c-0.414-0.429-1.097-0.44-1.526-0.026
        c-0.003,0.003-0.007,0.007-0.01,0.01l-0.008,0.008c-0.431,0.43-0.435,1.127-0.008,1.561l5.046,5.046"/>
      <path d="M145.744,231.96l-1.165-1.165c-0.684-0.684-2.226-0.674-3.105-1.553l-4.657-4.656
        c-0.42-0.449-0.406-1.151,0.031-1.584l0.745-0.745"/>
      <path d="M145.745,221.092l-4.269-4.27c-0.4-0.429-1.071-0.452-1.5-0.053
        c-0.007,0.007-0.014,0.014-0.021,0.021l-0.808,0.808"/>
      <path d="M151.567,226.134l-1.166-1.165c-0.578-0.624-0.939-1.417-1.029-2.263
        c-0.162-0.918-0.618-1.759-1.3-2.395l-1.94-1.94c-0.348-0.429-0.978-0.494-1.407-0.145c-0.053,0.043-0.102,0.092-0.145,0.145
        l-0.776,0.776"/>
      <path d="M147.298,234.289l-1.941-1.941l6.6-6.6l1.941,1.941"/>
      <path d="M130.995,217.211l1.165,1.165c0.684,0.684,0.674,2.226,1.553,3.105l1.551,1.551"/>
      <path d="M136.818,211.388l1.165,1.165c0.623,0.578,1.417,0.94,2.262,1.03
        c0.92,0.161,1.762,0.618,2.4,1.3l1.94,1.94"/>
      <path d="M128.666,215.658l1.941,1.941l6.6-6.6l-1.941-1.941"/>
      <path d="M136.818,231.572l1.164-1.164c0.661-0.432,1.39-0.753,2.155-0.95"/>
      <path d="M130.995,225.75l1.164-1.164c0.547-0.579,0.897-1.316,1-2.106"/>
      <path d="M135.265,233.901l1.941-1.941l-6.6-6.6l-1.941,1.941"/>
      <path d="M151.567,216.823l-1.165,1.164c-0.432,0.662-0.753,1.39-0.95,2.155"/>
      <path d="M145.745,211l-1.164,1.164c-0.58,0.547-1.318,0.897-2.109,1"/>
      <path d="M153.896,215.27l-1.94,1.936l-6.6-6.6l1.941-1.941"/>
    </g>
  </symbol>
  <symbol
    id="help2"
    viewBox="0 0 21.334 21.334"
    fill="currentColor"
  >
    <g transform="translate(-809.576 -317.512)">
      <g transform="translate(809.575 317.512)">
        <path d="M10.668,21.334c-5.891,0-10.667-4.776-10.667-10.667S4.777,0,10.668,0c5.891,0,10.667,4.776,10.667,10.667l0,0C21.328,16.555,16.556,21.327,10.668,21.334z M10.668,1.755c-4.922,0-8.912,3.99-8.912,8.912c0,4.922,3.99,8.912,8.912,8.912c4.922,0,8.912-3.99,8.912-8.912c0,0,0-0.001,0-0.001C19.574,5.747,15.587,1.76,10.668,1.755z"/>
      </g>
      <g transform="translate(819.364 320.789)">
        <path d="M4.974,8.187h-4.1c-0.485,0-0.878-0.393-0.878-0.878V0.873C-0.02,0.388,0.359-0.018,0.844-0.034C1.329-0.05,1.735,0.329,1.751,0.814c0.001,0.02,0.001,0.039,0,0.059v5.558h3.218C5.454,6.415,5.86,6.794,5.876,7.279C5.892,7.764,5.513,8.17,5.028,8.186c-0.02,0.001-0.039,0.001-0.059,0L4.974,8.187z"/>
      </g>
    </g>
  </symbol>
  <symbol
    id="copy"
    viewBox="0 0 24 24"
  >
    <path fill="currentColor" d="M19,21H8V7H19M19,5H8A2,2 0 0,0 6,7V21A2,2 0 0,0 8,23H19A2,2 0 0,0 21,21V7A2,2 0 0,0 19,5M16,1H4A2,2 0 0,0 2,3V17H4V3H16V1Z" />
  </symbol>
  <symbol id="gog" viewBox="0 0 24 24" fill="currentColor">
    <path d="M12 1.1A10.9 10.9 0 1012 23 10.9 10.9 0 0012 1zM5.7 6.3h2.7c.4 0 .8.4.8.8v4.6c0 .4-.4.8-.8.8H5v-1h3c.2 0 .3 0 .3-.2V7.6c0-.2-.1-.3-.3-.3H6.1c-.1 0-.2.1-.2.3v1.8c0 .1 0 .2.2.2h1.4v1H5.7a.8.8 0 01-.8-.8V7.1c0-.4.3-.8.8-.8zm5 0h2.7c.4 0 .7.4.7.8v2.7c0 .4-.3.8-.7.8h-2.8a.8.8 0 01-.7-.8V7.1c0-.4.3-.8.7-.8zm4.9 0h2.7c.4 0 .8.4.8.8v4.6c0 .4-.4.8-.8.8h-3.5v-1h3c.2 0 .3 0 .3-.2V7.6c0-.2 0-.3-.2-.3H16c-.2 0-.3.1-.3.3v1.8c0 .1.1.2.3.2h1.3v1h-1.8a.8.8 0 01-.8-.8V7.1c0-.4.4-.8.8-.8zm-4.5 1c-.2 0-.3.1-.3.3v1.8c0 .1.1.2.3.2h1.8c.2 0 .3-.1.3-.2V7.6c0-.2-.2-.3-.3-.3H11zm-5.4 6.1h2.8v1H6c-.1 0-.2 0-.2.2v1.8c0 .2 0 .3.2.3h2.4v1H5.6a.8.8 0 01-.8-.8v-2.7c0-.4.3-.8.8-.8zm4.2 0h2.8c.4 0 .7.4.7.8v2.7c0 .4-.3.8-.7.8H9.9a.8.8 0 01-.7-.8v-2.7c0-.4.3-.8.7-.8zm5 0H19v4.3h-1v-3.3h-.7c-.2 0-.3 0-.3.2v3h-1v-3.3h-.7c-.2 0-.3.2-.3.3v3h-1v-3.4c0-.4.4-.8.8-.8zm-4.5 1c-.2 0-.3 0-.3.2v1.8c0 .2.1.3.3.3h1.8c.1 0 .3-.1.3-.3v-1.8l-.3-.2h-1.8z"/>
  </symbol>
  <symbol id="uplay" viewBox="0 0 24 24" fill="currentColor">
    <path d="M14.6 4C9.4 4 5.2 8.4 5.2 14c0 5 6.3 8 9.7 8 3.5 0 7.5-4.1 7.5-9.7C22.4 7 16.5 4 14.6 4zm-5 .4a1.3 1.3 0 110-2.6 1.3 1.3 0 110 2.6zm-5 4c-1.2 0-3-.8-3-2.6 0-2 1.3-3.4 3.1-3.4 1.1 0 3.1.5 3.1 2.7 0 2.4-1.9 3.3-3.2 3.3zM18.3 17H12a2.5 2.5 0 01-2.6-2.6V9.7h2v4.5c0 .4.4.7.7.7h3.5c.4 0 .7-.3.7-.6l-.1-4.6h2V17z"/>
  </symbol>
  <symbol id="bethesda" viewBox="0 0 24 24" fill="currentColor">
    <path d="M12 .8a11.3 11.3 0 100 22.5A11.3 11.3 0 0012 .7zm0 21.8a10.6 10.6 0 110-21.2 10.6 10.6 0 010 21.2zm8.8-12.3h-1.6c-.2-.9-.5-1.7-1-2.5l1.1-1v-.6l-1.7-1.7a.4.4 0 00-.5 0L16 5.6c-.8-.4-1.6-.8-2.5-1V3c0-.2-.1-.3-.3-.3h-2.4c-.2 0-.4.1-.4.3v1.6c-.8.2-1.6.6-2.4 1L7 4.6a.4.4 0 00-.5 0L4.7 6.1c-.2.2-.2.4 0 .5l1.1 1.1a7 7 0 00-1 2.5H3.2c-.2 0-.3.1-.3.3V13c0 .2.1.4.3.4h1.6c.2.8.5 1.7 1 2.4L4.7 17c-.2.2-.2.4 0 .5l1.7 1.7c.1.2.4.2.5 0l1.1-1 2.5 1v1.5c0 .2.1.4.3.4h2.4c.2 0 .4-.2.4-.4V19c.8-.1 1.7-.5 2.4-1l1.1 1.1c.2.2.4.2.5 0l1.7-1.7c.2-.1.2-.3 0-.5l-1-1 1-2.5h1.5c.2 0 .4-.2.4-.4v-2.4c0-.2-.2-.3-.4-.3zm-.4 2.4H19c-.2 0-.3.1-.3.3-.2 1-.6 1.8-1.2 2.6v.5l1.2 1-1.2 1.3-1.1-1.1a.4.4 0 00-.5 0c-.8.5-1.7.9-2.7 1l-.2.4v1.6H11v-1.6c0-.1 0-.3-.2-.3-1-.2-2-.6-2.7-1.1a.3.3 0 00-.5 0l-1 1.1-1.3-1.2 1.1-1v-.5c-.5-.8-.9-1.7-1-2.7 0-.2-.2-.3-.4-.3H3.6V11H5c.2 0 .3-.1.3-.3.2-1 .6-1.9 1.1-2.7v-.5l-1-1 1.1-1.3 1.1 1.1c.1.2.3.2.5 0 .8-.5 1.7-.9 2.7-1l.2-.4V3.4h1.7v1.5c0 .2.2.3.3.4 1 .1 2 .5 2.7 1 .2.2.3.1.5 0l1-1 1.3 1.1-1.1 1.1V8c.5.8.9 1.7 1 2.7 0 .2.2.3.4.3h1.5v1.7z"/>
  </symbol>
  <symbol id="origin" viewBox="0 0 24 24" fill="currentColor">
    <path d="M12 .2l-.1.3c-.5.7-1 1.5-1 2.3v.3c.9 0 2 0 2.9.2a8.9 8.9 0 016.3 12.4 18.6 18.6 0 01-7.7 8.3h-.3v-.5c.5-.6.8-1.3 1-2v-.6h-.2a9 9 0 01-8.6-4.4 8.8 8.8 0 01-.1-8.9C5.8 4.5 8.4 1.8 11.6 0c.1 0 .3 0 .4.2zm-.5 8.3a3.5 3.5 0 00-2 5.9 3.5 3.5 0 005.8-1.4 3.5 3.5 0 00-3.8-4.5z"/>
  </symbol>
  <symbol id="rockstarcom" viewBox="0 0 24 24" fill="currentColor">
    <path d="M6 4a2 2 0 00-2 2v18a2 2 0 002 2h18a2 2 0 002-2V6a2 2 0 00-2-2H6zm4.32 3h4.416c1.952 0 3.328.459 3.168 2.635-.144 2.005-1.44 2.373-1.44 2.373s.421.772.272 2.234c-.155 1.541.016 2.113.16 2.358h-2.623s-.15-.315-.076-.928c.23-1.824-.03-2.805-1.304-2.805H11.36L10.54 16.6H8.264L10.32 7zm1.905 1.615l-.524 2.637h2.385c.72 0 1.49-.242 1.676-1.17.192-.944-.476-1.467-1.18-1.467h-2.357zm6.955 5.852l.508 3.183h3.05l-2.773 2.053.639 3.297-2.577-2-3.29 2 1.546-3.408-2.08-1.924h3.201l1.776-3.201z"></path>
  </symbol>
  <symbol id="xbox" viewBox="0 0 30 30" fill="currentColor">
    <path d="M10.8 24c-1.8-.2-3.7-.8-5.3-1.9-1.3-.9-1.7-1.2-1.7-2 0-1.4 1.6-4 4.3-6.9A21 21 0 0112 9.7a32 32 0 015.4 5.3c2.1 2.6 3.1 4.8 2.6 5.7-.4.7-2.7 2.2-4.5 2.7a12 12 0 01-4.7.6zM2 18.6a12.9 12.9 0 01-2-5.9c0-.8 0-1.2.3-2.9.3-2.1 1.5-4.5 2.9-5.9.6-.6.7-.6 1.4-.4.9.3 1.8 1 3.3 2.3l.9.8-.5.6A35.5 35.5 0 002.9 16c-.5 1.3-.7 2.6-.5 3.1l-.4-.5zm19.7.3a5 5 0 00-.4-2.5c-.7-2.2-3.1-6.2-5.3-8.9l-.7-.9.7-.7c1-.9 1.6-1.4 2.4-1.9.6-.4 1.4-.7 1.7-.7a11 11 0 013.6 6.4 17 17 0 010 4.5c-.2.9-.5 2.1-.9 2.8l-1.2 2.1.1-.2zM11 2.9a14 14 0 00-3.4-1.2H6.4c-.7 0-.7 0 .5-.5a11.9 11.9 0 017.4-.9c1.3.2 2.8.7 3.7 1.2l.3.2h-.6c-1.1-.1-2.8.4-4.6 1.3l-1 .5-1.1-.6z"/>
  </symbol>
  <symbol id="microsoft" viewBox="0 0 24 24" fill="currentColor">
    <path d="M22.1 6l-3.5-1h-.2L1.9 8c-.2 0-.4.3-.4.5v12c0 .2.2.4.4.5l16.5 3h.2l3.5-1c.2-.1.4-.3.4-.5v-16c0-.2-.1-.4-.4-.5zM9.5 17.4l-3-.3V15h3v2.4zm0-3.4h-3v-2l3-.3V14zm5 3.9l-4-.4V15h4v2.9zm0-3.9h-4v-2.5l4-.4V14zM7 6c.3 0 .5-.2.5-.5v-2c0-1 1-2.5 2.5-2.5s2.5.6 2.5 1.5v2c0 .3.2.5.5.5s.5-.2.5-.5v-2C13.5 1 12.1 0 10 0S6.5 1.9 6.5 3.5v2c0 .3.2.5.5.5zm3.7-3.9C9.6 2.8 9.5 4.6 9.5 5c0 .3.2.5.5.5s.5-.2.5-.5c0-.8.2-1.8.8-2.1.2-.1.3-.4.2-.7-.2-.2-.5-.3-.8-.1zm3.7.4c.1.2.2.9.1 1.5 0 .3.2.5.5.5s.5-.2.5-.5c0-.5.1-1.8-.4-2.3l-.6-.3c-.3.1-.5.3-.5.6 0 .2.2.4.4.5z"/>
  </symbol>
  <symbol id="battlenet" viewBox="0 0 24 24" fill="currentColor">
    <path d="M21.1 10.6s2 .1 2-1.1c0-1.5-2.6-2.9-2.6-2.9l.7-1.4c.3-.5 1-2.4 1-2.8v-.7C22 2.9 20.1 6.2 20 6.4c-1.9-.9-4.4-1.1-4.4-1.1S12.9 0 10.6 0C8.2 0 8.2 4.5 8.2 4.5s-.6-1.3-1.4-1.3C5.6 3.2 5.2 5 5.2 7c-2.4 0-4.4.5-4.6.6-.2.1-.8.5-.5.5.5-.2 3-.5 5.1-.4.1 1.9 1.2 4.3 1.2 4.3S4 15.4 4 17.9c0 .6.3 1.8 2 1.8 1.4 0 3-.9 3.3-1a3 3 0 00-.5 1.4c0 .3.2 1 1.3 1 1.4 0 3-1.1 3-1.1s1.5 2.5 2.8 3.6c.3.3.7.4.7.4s-1.3-1.2-2.9-4.3c1.5-1 3.1-3.2 3.1-3.2h1.7c2.3 0 5.6-.5 5.6-2.3-.1-1.9-3-3.6-3-3.6zm.2-1.1c0 .7-.6.7-.6.7h-.5l-1.5-.7 1.1-1.7c.1 0 1.5.9 1.5 1.7zm-9.6-6.8c1.1 0 2.6 2.5 2.6 2.5s-2.4-.2-4.4 1c.1-1.9.7-3.5 1.8-3.5zm-4.3 2c.3 0 .7.4.8.8l.1 1.6L6.4 7c0-1.8.7-2.3 1-2.3zm-.2 12.4c-1.1 0-1.3-.6-1.3-1.1 0-1.2 1-2.9 1-2.9s1.1 2.3 3 3.3c-.9.5-1.7.7-2.7.7zm3.5 2.5c-.8 0-.9-.5-.9-.6 0-.4.3-.8.3-.8l1.4-1 .9 1.8c.1 0-.9.6-1.7.6zm2.4-1c-.5-.8-.8-1.7-.8-1.7s1.9.1 2.9-.9c-.6.3-1.6.6-2.8.5 2.5-2.2 3.9-3.7 5.1-5.4l-.8-.6c-.7.9-3.6 3.9-6.2 5.4-3.3-1.8-4-7.2-4.1-8.3l1.8.2S7.5 9 7.5 9.9l.1.9s0-1.6.9-2.8c.7 3.9 1.5 5.9 2.1 7.1l.9-.4S9.8 9.8 9.9 6.5c.8-.4 1.9-.8 3.2-.8 3.4 0 6.1 1.4 6.1 1.4l-1.1 1.5s-.9-1.7-2.3-2c.7.5 1.5 1.2 1.9 2.2-2.7-.8-6.1-1.4-7.2-1.5l-.1 1s4.5.8 7.8 2.7c0 4.1-4.5 7.2-5.1 7.6zm4.3-3.1s1.4-1.8 1.4-4.3c0 0 2.3 1.4 2.3 2.8-.1 1.5-3.7 1.5-3.7 1.5z"/>
  </symbol>
  <symbol id="steam" viewBox="-1 -1 19.71 19.71" fill="currentColor">
    <path d="M8.856,0a8.856,8.856,0,1,0,8.856,8.856A8.856,8.856,0,0,0,8.856,0Zm0,16.235a7.388,7.388,0,0,1-7.184-5.719L4.44,11.681A1.99,1.99,0,0,0,8.383,11.3l0,0,2.278-1.7A2.588,2.588,0,1,0,8.107,6.967L6.437,9.3A1.96,1.96,0,0,0,5.3,9.627L1.524,8.037a7.379,7.379,0,1,1,7.332,8.2ZM6.824,10.265l-.976-.41a1.521,1.521,0,0,1,.545-.1,1.538,1.538,0,1,1-1.41,2.156l.977.41a1.115,1.115,0,0,0,.863-2.055ZM8.935,7.017a1.759,1.759,0,1,1,1.759,1.76A1.761,1.761,0,0,1,8.935,7.017Zm1.759,1.329a1.329,1.329,0,1,1,1.328-1.328A1.33,1.33,0,0,1,10.695,8.346Z" />
  </symbol>
  <symbol id="epicgames" viewBox="0 0 647.2 751" fill="currentColor">
    <path d="M588.4 0H58.8C15.8 0 0 15.8 0 58.8V577c0 4.9.2 9.4.6 13.6 1 9.4 1.2 18.5 9.9 28.8.9 1 9.8 7.6 9.8 7.6 4.8 2.3 8.1 4.1 13.5 6.3l260.8 109.3c13.5 6.2 19.2 8.6 29 8.4 9.8.2 15.5-2.2 29-8.4l260.8-109.3c5.4-2.2 8.7-3.9 13.5-6.3 0 0 8.9-6.6 9.8-7.6 8.7-10.3 8.9-19.4 9.9-28.8.4-4.2.6-8.7.6-13.6V58.8c0-43-15.9-58.8-58.8-58.8zm-35.5 521l-.1 1.2-.1 1.3-.2 1.2-.4 1.2-.2 1.1-.4 1.2-.5 1.1-.5 1-.5 1.1-.6 1-.6 1-.7 1-.6 1-.7.8-.8.8-.7.7-1 .8-.8.7-1 .7-.9.6-.9.7-1.1.6-1.1.5-1.1.6-1.2.5-1.2.5-1.2.4-1.2.4-1.1.4-1.2.2-1.1.2-1.1.2-1.2.2-1.2.1-1.1.1-1.2.1-1.3.1-1.2.1h-4.7l-1.2-.1h-1.3l-1.2-.1-1.2-.1-1.3-.1-1.2-.2-1.2-.1-1.2-.2-1.2-.2-1.2-.2-1.2-.2-1.2-.4-1.1-.2-1.2-.4-1.2-.4-1.1-.5-1.2-.4-1.1-.4-1.2-.5-1.1-.5-1.1-.5-1.1-.6-1.1-.5-1.1-.6-.9-.6-1.1-.6-.9-.6-1-.6-.9-.7-.9-.7-1-.7-1-.7-.8-.7-.9-.8.7-1 .8-.8.7-1 .8-1 .7-.8.7-1 .8-1 .7-.8.8-1 .7-.8.8-1 .7-1 .7-.8.8-1 .7-1 .8-.8.7-1 .9.7 1.1.7 1 .7 1.1.7 1 .6 1.1.7.9.6 1.1.5.9.6 1.1.5 1.1.5 1.1.5 1.1.4 1.1.5 1.2.4 1.2.4 1.1.4 1.2.2 1.2.2 1.2.2 1.3.1 1.2.2h1.2l1.3.1H520.5l1.3-.1 1.2-.2 1.1-.2 1.1-.2 1-.4.8-.5 1-.7.7-.8.5-1 .4-1.1.1-1.2v-.2l-.1-1.4-.5-1.2-.6-.8-.8-.7-1-.7-.9-.5-1.1-.5-1.2-.5-1.4-.6-.8-.2-.9-.2-1.1-.4-1.1-.2-1.2-.4-1.2-.2-1.3-.4-1.2-.2-1.3-.4-1.2-.2-1.2-.4-1.2-.2-1.2-.4-1.1-.4-1.2-.2-1.1-.4-1.1-.4-1.1-.4-1.3-.5-1.2-.5-1.2-.5-.9-.3-1.1-.6-1.2-.6-1-.6-1.1-.6-.9-.7-1-.6-.8-.7-.8-.8-.8-.8-.7-.8-.7-.8-.6-.8-.6-1-.6-1.1-.5-.8-.4-1-.4-1.1-.4-1-.2-1.2-.2-1.1-.1-1.2-.1-1.2-.1-1.3v-2.8l.1-1.2.1-1.1.1-1.2.2-1.1.2-1.1.4-1.1.2-1.1.5-1.1.5-1.1.5-1.1.6-1.1.6-1.1.7-1 .7-1 .8-1 .8-.8.8-1 1-.8.8-.6 1-.7 1-.7.9-.6 1.1-.6 1.1-.5 1.1-.6 1.1-.5 1.2-.4 1.2-.5 1.1-.4.9-.2 1.1-.2 1.1-.2 1.2-.2 1.1-.2 1.2-.1 1.2-.1 1.2-.1 1.2-.1h5.1l1.3.1 1.3.1h1.2l1.3.1 1.2.2 1.3.1 1.2.2 1.1.2 1.2.2 1.2.2 1.1.2 1.2.4 1.1.4 1.1.2 1.2.5 1.1.4 1.1.5 1.1.5 1.2.5 1.1.6.9.5 1.1.6 1.1.6.9.6 1.1.7 1 .6 1 .7.9.7.9.7-.7 1-.6 1-.7 1-.7 1-.7 1.1-.6 1-.7 1-.7 1-.6 1-.7 1-.7 1-.6 1-.7 1.1-.7 1-.7 1-.6 1-.7 1-1-.7-1.1-.6-1-.6-1-.7-1.1-.5-1-.6-1.1-.5-.9-.5-1.1-.5-.9-.5-1.1-.4-1-.5-1.3-.4-1.2-.4-1.2-.4-1.2-.2-1.2-.2-1.2-.2-1.2-.1-1.2-.1-1.1-.1H513.8l-1.3.2-1.2.2-1.1.2-.9.5-.8.5-1.1 1-.7 1.1-.5 1.1-.1 1.2v.2l.1 1.6.6 1.3.5.7.8.8 1.1.6.9.6 1.2.5 1.3.5 1.4.5.9.2.9.4 1.1.2 1.1.4 1.2.2 1.3.4 1.3.4 1.3.4 1.3.2 1.2.4 1.3.4 1.2.2 1.2.4 1.2.4 1.1.4 1.2.4 1.1.4 1.1.4 1.3.5 1.2.6 1.2.5 1.2.6 1.1.6 1.1.6.9.6 1 .7 1 .6.9.8 1 .8.8 1 .8.8.7 1 .7 1.1.6 1 .6 1.1.5 1 .4 1.1.4 1.1.2 1.1.2 1.2.2 1.2.1 1.2.1 1.3v2.8l-.3.5zm-83.4 23.9H401.2V457.8H470.6V477.7H424V492H465.8v18.7H424V525.5H471V545.4h-1.5zm-87 0H360.7V493.4l-.6 1-.7 1.1-.6 1-.7 1-.6 1.1-.7 1-.6 1-.6 1.1-.7 1-.6 1-.7 1-.6 1.1-.7 1-.6 1-.6 1.1-.7 1-.6 1-.7 1.1-.6 1-.7 1-.6 1.1-.6 1-.7 1-.6 1.1-.7 1-.6 1-.7 1-.6 1.1-.6 1-.7 1-.6 1.1-.7 1-.6 1-.7 1.1-.6 1h-.5l-.7-1.1-.6-1-.7-1.1-.6-1-.7-1.1-.6-1-.7-1.1-.6-1-.7-1.1-.6-1-.7-1.1-.6-1-.7-1.1-.6-1-.7-1.1-.6-1-.7-1.1-.7-1-.6-1.1-.7-1-.6-1.1-.7-1-.6-1.1-.7-1-.6-1.1-.7-1-.6-1.1-.7-1-.6-1.1-.7-1-.6-1.1-.7-1-.6-1.1-.7-1V545.2H292.6V457.8H317.3l.6 1 .6 1.1.7.9.6 1.1.6 1 .6 1.1.6.9.7 1.1.6 1 .6 1 .6 1.1.6 1 .7 1.1.6 1 .6 1.1.6 1 .7 1 .6 1.1.6 1 .6 1.1.6 1 .7 1.1.6 1 .6 1.1.6.9.6 1 .7 1.1.6 1 .6 1.1.6.9.6 1.1.7 1 .6 1.1.6 1 .6-1 .6-1.1.7-1 .6-1.1.6-.9.6-1.1.7-1 .6-1.1.6-1 .6-.9.7-1.1.6-1 .6-1.1.6-1 .7-1.1.6-1 .6-1.1.6-1 .6-1 .7-1.1.6-1 .6-1.1.6-1 .7-1.1.6-1 .6-1 .6-1.1.7-.9.6-1.1.6-1 .6-1.1.7-.9.6-1.1.6-1H384.3V545.2h-1.8zm-138.1-35.8l-.4-1.1-.5-1.2-.5-1.1-.4-1.1-.5-1.1-.5-1.2-.4-1.1-.5-1.1-.5-1.1-.4-1.1-.5-1.2-.4-1.1-.5-1.1-.5-1.1-.4-1.1-.5-1.2-.5-1.1-.4-1.1-.5-1.1-.5-1.2-.4-1.1-.5-1.1-.5 1.1-.4 1.1-.5 1.2-.5 1.1-.4 1.1-.5 1.1-.5 1.2-.5 1.1-.4 1.1-.5 1.1-.5 1.1-.4 1.2-.5 1.1-.5 1.1-.4 1.1-.5 1.1-.5 1.2-.5 1.1-.4 1.1-.5 1.1-.5 1.2-.4 1.1-.5 1.1H243.7l.7-1.1zm37.4 35.8H258.4l-.5-1.1-.4-1.1-.5-1.1-.5-1.2-.4-1.1-.5-1.1-.5-1.1-.4-1.1-.5-1.1-.5-1.1-.4-1.1-.5-1.2-.5-1.1-.4-1.1-.5-1.1H217.8l-.5 1.1-.4 1.1-.5 1.1-.4 1.5-.4 1.1-.5 1.1-.5 1.1-.4 1.1-.5 1.1-.5 1.1-.4 1.1-.5 1.2-.5 1.1-.4 1.1-.5 1.1H187.2l.5-1.1.5-1.1.5-1.1.5-1.2.4-1.1.5-1.1.5-1.1.5-1.1.5-1.1.5-1.2.5-1.1.5-1.1.4-1.1.5-1.1.5-1.1.5-1.2.5-1.1.5-1.1.5-1.1.5-1.1.4-1.1.5-1.2.5-1.1.5-1.1.5-1.1.5-1.1.5-1.1.5-1.2.4-1.1.5-1.1.5-1.1.5-1.1.5-1.1.5-1.2.5-1.1.5-1.1.4-1.1.5-1.1.5-1.1.5-1.2.5-1.1.5-1.1.5-1.1.5-1.1.4-1.1.5-1.1.5-1.2.5-1.1.5-1.1.5-1.1.5-1.1.5-1.1.4-1.2.5-1.1.5-1.1.5-1.1.5-1.1.5-1.1.5-1.2.5-1.1.4-1.1.5-1.1.5-1.1.5-1.1.5-1.2.5-1.1.5-1.1.5-1.1.4-1.1.5-1.1.5-1.2.5-1.1.5-1.1.5-1.1.5-1.1.5-1.1.4-1.2.5-1.1.5-1.1.5-1.1H248.5l.5 1.1.5 1.1.5 1.1.5 1.2.4 1.1.5 1.1.5 1.1.5 1.1.5 1.1.5 1.2.5 1.1.5 1.1.4 1.1.5 1.1.5 1.1.5 1.2.5 1.1.5 1.1.5 1.1.5 1.1.4 1.1.5 1.2.5 1.1.5 1.1.5 1.1.5 1.1.5 1.1.5 1.2.4 1.1.5 1.1.5 1.1.5 1.1.5 1.1.5 1.2.5 1.1.5 1.1.4 1.1.5 1.1.5 1.1.5 1.1.5 1.2.5 1.1.5 1.1.5 1.1.4 1.1.5 1.1.5 1.2.5 1.1.5 1.1.5 1.1.5 1.1.5 1.1.4 1.2.5 1.1.5 1.1.5 1.1.5 1.1.5 1.1.5 1.2.5 1.1.4 1.1.5 1.1.5 1.1.5 1.1.5 1.2.5 1.1.5 1.1.5 1.1.4 1.1.5 1.1.5 1.2.5 1.1.5 1.1.5 1.1.5 1.1.5 1.1.4 1.2.5 1.1.5 1.1.5 1.1h-5.7zm-104.3-11.1l-1 .7-.8.6-1 .7-.9.6-.9.7-1 .6-.9.6-1.1.6-1.1.6-1.1.6-1.1.5-1.1.6-1.2.5-1.1.5-1.2.5-1.1.5-1.1.4-1.1.4-1.1.4-1.2.4-1.1.4-1.2.2-1.1.2-1.2.2-1.2.2-1.2.1-1.3.1-1.2.1-1.3.1-1.2.1-1.3.1H138l-1.2-.1-1.3-.1-1.2-.1-1.2-.1-1.2-.1-1.2-.2-1.2-.2-1.1-.2-1.2-.2-1.1-.4-1.2-.2-1.1-.4-1.1-.5-1.1-.4-1.2-.5-1.1-.5-1.1-.5-1.1-.5-1.1-.6-.9-.6-1.1-.6-1-.6-.9-.6-1-.7-.9-.7-1-.7-.8-.7-.8-.7-.8-.8-.8-.7-.8-.8-.8-.8-.7-.8-.7-1-.7-.8-.6-1-.7-1-.6-1-.6-1-.6-1.1-.6-1-.5-1.1-.5-1.1-.5-1.1-.5-1.1-.4-1-.5-1.1-.2-1.1-.4-1.1-.2-1.2-.4-1.1-.2-1.2-.1-1.1-.2-1.2-.1-1.1-.1-1.2-.1-1.2-.1-1.2V500l.1-1.3v-1.2l.1-1.2.1-1.3.2-1.2.1-1.2.2-1.1.4-1.2.2-1.2.4-1.1.4-1.2.4-1.1.5-1.2.5-1.1.5-1.1.5-1.1.5-1.1.6-1.1.6-1 .6-1 .6-1 .6-1 .7-1 .7-1 .7-1 .7-.8.8-.8.7-.8.8-.8.8-.8.8-.7 1-.8.8-.7.9-.7 1-.6.9-.7 1-.6.9-.6 1.1-.6 1.1-.6 1.1-.6 1.1-.5 1.1-.5 1.2-.6.9-.4 1.2-.4 1.1-.5 1.1-.2 1.1-.4 1.2-.2 1.1-.4 1.2-.2 1.2-.1 1.2-.2 1.2-.1 1.2-.1 1.2-.1 1.2-.1h5.1l1.3.1 1.3.1h1.2l1.2.1 1.3.2 1.1.1 1.2.2 1.2.2 1.1.2 1.1.2 1.1.2 1.1.4 1.1.2.9.4 1.1.4 1.1.5 1.1.5 1.1.5 1.1.6 1.1.5 1 .6 1.1.6.9.6 1.1.6.9.7.9.6 1 .7.9.7 1 .8.9.7-.7 1-.8.8-.7 1-.8 1-.7 1-.7.8-.8 1-.7 1-.7.8-.8 1-.7 1-.8 1-.7.8-.7 1-.8 1-.7 1-.8.8-.7 1-1-.7-.9-.8-1-.6-.9-.7-.9-.6-1-.6-1-.6-1.3-.4-1-.5-.9-.5-1-.4-1.1-.4-1-.2-1.1-.2-1.2-.2-1.2-.2-1.2-.1-1.3-.3-1.3-.1h-2.5l-1.2.1-1.1.1-1.2.2-1.1.2-1.1.4-1.1.4-1.1.5-1.1.5-1 .6-.9.6-1 .6-.8.7-.8.7-.8.7-.7.8-.8.8-.7 1-.6.8-.6 1-.6 1.1-.6 1-.5 1.1-.4 1.1-.5 1.1-.4 1.2-.2 1.2-.2 1.1-.2 1.3-.1 1.2-.1 1.2v2.7l.1 1.2.1 1.1.1 1.2.2 1.1.2 1.1.2 1.1.4 1.1.4 1 .5 1.2.5 1.1.6 1.1.6 1 .6 1 .7 1 .7.8.8.8.7.8.8.7 1 .7.9.7.9.6 1 .6 1.1.5 1.1.5 1.1.5 1.2.4 1.2.4 1.2.2 1.2.2 1.2.1 1.3.1h2.7l1.3-.1 1.3-.1 1.2-.1 1.2-.2 1.2-.2 1.2-.4 1.1-.2 1.1-.5 1-.5 1.1-.5.8-.5 1-.6V511.7H139V494.1H178.6v39.1l-1.1.6zM139.3 261h51.6v-39.9h-51.6v-81.4h53.6V99.8H95.5v287.9h98.2v-39.9h-54.4V261zm369.4 8.7v65c0 11.5-5.3 16.9-16.4 16.9h-8.2c-11.5 0-16.8-5.3-16.8-16.9V152.9c0-11.5 5.3-16.9 16.8-16.9h7.4c11.1 0 16.4 5.3 16.4 16.9v56.4h43v-58.8c0-35.8-17.2-53.1-52.8-53.1h-21.3c-35.6 0-53.2 17.7-53.2 53.5v185.9c0 35.8 17.6 53.5 53.2 53.5h21.7c35.6 0 53.2-17.7 53.2-53.5v-67h-43zm-152.1 118h43.8V99.8h-43.8v287.9zm-63.6-160c0 11.5-5.3 16.9-16.4 16.9h-18V138.5h18c11.1 0 16.4 5.3 16.4 16.9v72.3zm-9.4-127.9h-68.8v287.9h43.8V283.2h25c35.6 0 53.2-17.7 53.2-53.5v-76.5c0-35.7-17.6-53.4-53.2-53.4zm-84.8 548.3h250.7l-128 42.2-122.7-42.2z" clip-rule="evenodd" fill-rule="evenodd"/>
  </symbol>
  <symbol id="discord" viewBox="0 0 245 240" fill="currentColor">
    <path d="M104.4 103.9c-5.7 0-10.2 5-10.2 11.1s4.6 11.1 10.2 11.1c5.7 0 10.2-5 10.2-11.1.1-6.1-4.5-11.1-10.2-11.1zm36.5 0c-5.7 0-10.2 5-10.2 11.1s4.6 11.1 10.2 11.1c5.7 0 10.2-5 10.2-11.1s-4.5-11.1-10.2-11.1z"/>
    <path d="M189.5 20h-134C44.2 20 35 29.2 35 40.6v135.2c0 11.4 9.2 20.6 20.5 20.6h113.4l-5.3-18.5 12.8 11.9 12.1 11.2 21.5 19V40.6c0-11.4-9.2-20.6-20.5-20.6zm-38.6 130.6s-3.6-4.3-6.6-8.1c13.1-3.7 18.1-11.9 18.1-11.9-4.1 2.7-8 4.6-11.5 5.9-5 2.1-9.8 3.5-14.5 4.3-9.6 1.8-18.4 1.3-25.9-.1-5.7-1.1-10.6-2.7-14.7-4.3-2.3-.9-4.8-2-7.3-3.4-.3-.2-.6-.3-.9-.5-.2-.1-.3-.2-.4-.3-1.8-1-2.8-1.7-2.8-1.7s4.8 8 17.5 11.8c-3 3.8-6.7 8.3-6.7 8.3-22.1-.7-30.5-15.2-30.5-15.2 0-32.2 14.4-58.3 14.4-58.3 14.4-10.8 28.1-10.5 28.1-10.5l1 1.2c-18 5.2-26.3 13.1-26.3 13.1s2.2-1.2 5.9-2.9c10.7-4.7 19.2-6 22.7-6.3.6-.1 1.1-.2 1.7-.2 6.1-.8 13-1 20.2-.2 9.5 1.1 19.7 3.9 30.1 9.6 0 0-7.9-7.5-24.9-12.7l1.4-1.6s13.7-.3 28.1 10.5c0 0 14.4 26.1 14.4 58.3 0 0-8.5 14.5-30.6 15.2z"/>
  </symbol>
    <symbol id="pad2" viewBox="0 0 23.6 18.58">
    <g stroke="currentColor" transform="translate(-24.61 -29.71)">
      <circle cx="41.44" cy="37.34" r=".74" fill="currentColor" stroke-miterlimit="10" stroke-width=".5"/>
      <circle cx="41.44" cy="41.12" r=".74" fill="currentColor" stroke-miterlimit="10" stroke-width=".5"/>
      <circle cx="39.35" cy="39.29" r=".74" fill="currentColor" stroke-miterlimit="10" stroke-width=".5"/>
      <circle cx="43.47" cy="39.29" r=".74" fill="currentColor" stroke-miterlimit="10" stroke-width=".5"/>
      <path fill="none" stroke-linejoin="round" stroke-width="1.1" d="M45.65 37.19a5.77 5.77 0 00-5.45-3.38l-.15.01a3.97 3.97 0 01-7.27 0h-.14a5.77 5.77 0 00-5.46 3.37c-.92 2.01-2.23 5.38-1.98 7.84.07.77.4 1.5.96 2.04.41.42.98.66 1.58.67a2.13 2.13 0 001.73-1.04c.5-.82 1.11-1.57 1.8-2.24a4.83 4.83 0 013.28-1.24h3.73a4.83 4.83 0 013.28 1.24c.7.67 1.3 1.42 1.8 2.24.37.62 1.02 1 1.74 1.04.6 0 1.16-.25 1.58-.67.55-.55.89-1.27.95-2.04.25-2.46-1.05-5.83-1.98-7.84z"/>
      <path fill="none" stroke-miterlimit="10" stroke-width="1.1" d="M34 39.19a2.7 2.7 0 11-2.73-2.66h.03A2.67 2.67 0 0134 39.2s0 0 0 0z"/>
      <path fill="none" stroke-linecap="round" stroke-miterlimit="10" stroke-width="1.1" d="M31.3 38.09v2.19"/>
      <path fill="none" stroke-linecap="round" stroke-miterlimit="10" stroke-width="1.1" d="M32.42 39.19h-2.23"/>
      <path fill="none" stroke-linecap="round" stroke-miterlimit="10" stroke-width="1.1" d="M36.41 33.15v-2.89"/>
      <path fill="none" stroke-linecap="round" stroke-linejoin="round" stroke-width="1.1" d="M35.27 34.29v-.32c0-.33.27-.6.6-.6h1.1c.33 0 .6.27.6.6v.23"/>
      <circle cx="36.41" cy="38.28" r=".03" fill="none" stroke-miterlimit="10" stroke-width="1.1"/>
    </g>
  </symbol>
    <symbol id="refresh2" viewBox="0 0 16.54 18.04" fill="currentColor" stroke="currentColor" stroke-miterlimit="10" stroke-width="0.25">
    <g transform="translate(-304.33 -286.05)">
      <g transform="translate(304.5 286.18)">
        <path d="M3.27 3.5a7.1 7.1 0 019.24-.24l-2.12.08a.5.5 0 10.02.99h.02l3.24-.12c.27-.01.48-.23.48-.5v-.05L14.03.45a.5.5 0 00-.99.03l.08 2.02A8.08 8.08 0 00.18 10.68a.49.49 0 00.6.36.5.5 0 00.36-.6 7.1 7.1 0 012.13-6.93z"/>
        <path d="M16.02 7.09a.5.5 0 00-.96.23 7.1 7.1 0 01-11.42 7.14l2.14-.2a.5.5 0 10-.1-.98l-3.23.3a.5.5 0 00-.44.53l.29 3.23a.49.49 0 10.97-.08l-.17-1.97a8.02 8.02 0 005.08 1.79 8.08 8.08 0 007.84-9.99z"/>
      </g>
    </g>
  </symbol>
</svg>
