<?xml version="1.0" standalone="no"?>
<!DOCTYPE svg PUBLIC "-//W3C//DTD SVG 20010904//EN"
 "http://www.w3.org/TR/2001/REC-SVG-20010904/DTD/svg10.dtd">
<svg version="1.0" xmlns="http://www.w3.org/2000/svg"
 width="737.000000pt" height="737.000000pt" viewBox="0 0 737.000000 737.000000"
 preserveAspectRatio="xMidYMid meet">
<metadata>
Created by potrace 1.11, written by Peter Selinger 2001-2013
</metadata>
<g transform="translate(0.000000,737.000000) scale(0.100000,-0.100000)"
fill="#000000" stroke="none">
<path d="M3682 6938 c-11 -46 -109 -226 -154 -284 -103 -133 -268 -273 -408
-344 l-42 -21 51 -25 c96 -48 176 -153 198 -259 8 -34 9 -150 3 -150 -2 0 -4
-9 -5 -20 -9 -81 -113 -204 -210 -250 -53 -25 -71 -28 -155 -28 -81 0 -103 4
-150 26 -66 31 -127 86 -166 147 -33 52 -61 81 -124 131 -45 36 -487 360 -530
389 -12 8 -28 21 -36 28 -27 26 -33 10 -9 -28 14 -22 25 -44 25 -49 0 -5 4
-11 9 -13 4 -1 25 -34 46 -73 21 -38 43 -77 50 -85 6 -8 19 -31 29 -50 9 -19
26 -48 36 -65 11 -16 26 -43 35 -60 9 -16 21 -39 28 -50 7 -11 48 -83 92 -160
44 -77 83 -141 87 -143 5 -2 8 -7 8 -12 0 -5 23 -47 50 -95 28 -48 50 -91 50
-96 0 -5 5 -9 10 -9 6 0 10 -5 10 -11 0 -6 18 -41 40 -78 l41 -68 -3 -112 -3
-112 -40 -22 c-22 -12 -42 -25 -45 -28 -3 -3 -39 -27 -80 -54 -41 -26 -77 -51
-80 -54 -3 -4 -21 -18 -40 -31 -19 -13 -40 -29 -46 -35 -6 -5 -35 -30 -64 -55
-125 -105 -286 -282 -371 -405 -19 -27 -37 -51 -41 -53 -5 -2 -8 -8 -8 -13 0
-4 -19 -39 -43 -76 -24 -37 -54 -90 -68 -118 -13 -27 -27 -52 -30 -55 -3 -3
-12 -23 -21 -45 -9 -22 -27 -65 -41 -95 -27 -60 -39 -89 -42 -106 -7 -31 -32
-69 -45 -68 -14 2 -29 5 -90 19 -60 13 -101 17 -200 17 -130 1 -226 -7 -262
-21 -16 -6 -28 -9 -28 -7 0 13 -196 -73 -265 -116 -91 -57 -275 -237 -275
-268 0 -6 -4 -10 -10 -10 -5 0 -10 -4 -10 -10 0 -5 -13 -30 -30 -56 -24 -38
-75 -155 -87 -199 -53 -199 -50 -438 6 -580 7 -16 12 -32 13 -35 0 -3 6 -20
14 -39 8 -18 14 -36 14 -39 0 -12 85 -148 119 -192 62 -79 151 -161 235 -215
81 -53 185 -105 209 -105 7 0 17 -4 23 -8 24 -22 173 -45 288 -45 138 -1 199
6 296 34 25 7 48 12 52 11 5 -1 8 3 8 8 0 6 9 10 20 10 11 0 20 5 20 12 0 6 3
9 6 5 4 -3 28 5 53 18 l47 23 14 -21 c7 -12 18 -31 24 -42 20 -36 137 -217
146 -225 3 -3 17 -21 30 -40 57 -82 215 -249 321 -340 35 -30 70 -61 77 -68 8
-6 35 -26 60 -44 26 -18 52 -37 59 -43 35 -29 43 -35 52 -35 5 0 16 -6 23 -13
12 -12 53 -37 139 -85 56 -31 104 -56 109 -57 3 0 28 -11 55 -24 28 -12 55
-24 60 -25 6 -1 16 -5 22 -9 7 -5 21 -10 30 -12 24 -5 84 -26 104 -36 24 -11
297 -79 344 -85 22 -3 45 -7 52 -9 87 -28 590 -22 729 9 177 39 368 95 449
131 17 7 44 18 60 25 17 7 37 16 45 21 8 5 22 12 30 15 46 16 234 117 274 147
6 4 47 33 91 64 44 31 82 60 83 64 2 5 7 9 12 9 18 0 241 215 306 297 21 26
44 53 51 58 13 11 27 29 108 147 27 40 54 78 60 84 5 6 25 40 44 76 l34 65 48
-24 c63 -31 126 -53 133 -46 3 4 6 1 6 -5 0 -7 3 -11 8 -10 4 1 25 -4 46 -10
22 -6 43 -9 47 -6 4 2 10 1 13 -4 7 -11 63 -16 191 -15 98 0 189 9 225 23 3 1
10 3 15 4 77 11 288 117 365 184 65 55 140 131 140 142 0 5 4 10 9 10 5 0 24
24 42 52 18 29 36 55 40 58 5 4 50 95 54 110 1 3 7 19 14 35 45 106 66 225 65
370 -2 205 -49 356 -168 535 -55 83 -167 199 -236 245 -25 17 -47 33 -50 37
-18 24 -201 100 -300 126 -95 24 -421 18 -471 -9 -11 -6 -34 -9 -51 -7 -27 3
-33 9 -55 68 -14 36 -32 81 -41 100 -9 19 -17 37 -17 40 -2 12 -78 160 -105
205 -17 28 -36 61 -43 75 -6 14 -14 27 -17 30 -3 3 -25 34 -49 70 -24 36 -48
67 -53 68 -4 2 -8 10 -8 17 0 8 -6 18 -13 22 -6 4 -24 24 -38 43 -63 84 -307
318 -412 394 -23 17 -43 34 -45 38 -2 5 -7 8 -11 8 -4 0 -45 25 -91 55 -46 30
-91 57 -101 60 -17 6 -19 18 -19 124 0 113 1 120 34 187 60 125 80 169 78 177
-1 4 2 7 8 7 5 0 10 4 10 9 0 6 25 63 56 128 121 254 149 313 212 443 36 74
66 140 68 146 3 17 74 157 87 173 20 24 -24 -3 -66 -41 -20 -18 -55 -49 -78
-68 -23 -19 -54 -46 -68 -60 -14 -14 -73 -65 -130 -115 -148 -127 -222 -203
-255 -260 -67 -115 -185 -187 -309 -189 -88 -1 -118 5 -181 34 -68 33 -141
106 -173 176 -31 67 -32 70 -36 139 -10 147 64 281 195 354 l57 32 -63 33
c-184 96 -375 287 -467 466 -18 36 -37 67 -41 68 -4 2 -8 8 -8 13 0 17 -35 89
-43 89 -5 0 -11 -10 -15 -22z m35 -1605 c7 -16 20 -46 29 -68 9 -22 22 -53 29
-70 7 -16 23 -57 35 -90 12 -33 26 -67 31 -77 6 -11 3 -18 -8 -23 -23 -8 -262
-5 -268 4 -2 4 2 19 10 34 8 15 12 27 10 27 -2 0 15 46 37 103 22 56 46 121
55 145 8 23 18 42 21 42 4 0 13 -12 19 -27z"/>
</g>
</svg>
